<svg width="676" height="19" viewBox="0 0 676 19" fill="none" xmlns="http://www.w3.org/2000/svg">
<g opacity="0.5">
<path d="M13.0099 2.35984H7.74992V18.4898H5.69992V2.35984H0.419922V0.339844H13.0099V2.36984V2.35984Z" fill="white"/>
<path d="M53.7002 0.339844V18.4898H51.6602V10.4198H42.4602V18.4898H40.4102V0.339844H42.4602V8.38984H51.6602V0.339844H53.7002Z" fill="white"/>
<path d="M84.4992 2.34984V8.08984H91.9692V10.1398H84.4992V16.4498H93.1092V18.4898H82.4492V0.339844H93.1092V2.35984H84.4992V2.34984Z" fill="white"/>
<path d="M152.959 0.339844H158.709C162.219 0.339844 165.089 2.96984 165.089 6.19984C165.089 9.42984 162.219 11.7998 158.709 11.7998H154.999V18.4998H152.949V0.339844H152.959ZM163.049 6.16984C163.049 4.07984 161.099 2.35984 158.719 2.35984H155.009V9.75984H158.719C161.109 9.77984 163.049 8.15984 163.049 6.16984Z" fill="white"/>
<path d="M203.02 18.4898L197.95 11.4098H194.56V18.4898H192.51V0.339844H197.86C201.23 0.339844 203.98 2.92984 203.98 6.12984C203.98 8.47984 202.37 10.5098 200.16 11.1698L205.55 18.4898H203.02ZM197.93 9.67984C200.09 9.67984 201.87 8.03984 201.87 6.07984C201.87 3.98984 200.07 2.35984 197.93 2.35984H194.55V9.66984H197.93V9.67984Z" fill="white"/>
<path d="M232.58 0.339844H234.63V18.4898H232.58V0.339844Z" fill="white"/>
<path d="M281.151 0V18.49H279.101V6.17L272.281 18.19H272.261L265.431 6.15V18.49H263.381V0H263.621L272.281 14.44L280.941 0H281.161H281.151Z" fill="white"/>
<path d="M311.95 2.34984V8.08984H319.42V10.1398H311.95V16.4498H320.56V18.4898H309.9V0.339844H320.56V2.35984H311.95V2.34984Z" fill="white"/>
<path d="M391.36 16.4498V18.4898H380.41V0.339844H382.46V16.4498H391.36Z" fill="white"/>
<path d="M416.85 9.41982C416.85 4.26982 421.05 0.0698242 426.17 0.0698242C431.29 0.0698242 435.5 4.26982 435.5 9.41982C435.5 14.5698 431.3 18.7198 426.15 18.7198C421 18.7198 416.84 14.5298 416.84 9.41982H416.85ZM433.44 9.40982C433.44 5.40982 430.17 2.13982 426.17 2.13982C422.17 2.13982 418.93 5.41982 418.93 9.40982C418.93 13.3998 422.18 16.6498 426.17 16.6498C430.16 16.6498 433.44 13.3998 433.44 9.40982Z" fill="white"/>
<path d="M462.34 9.41982C462.34 4.31982 466.57 0.0698242 471.66 0.0698242C473.99 0.0898242 476.25 1.15982 477.9 2.81982L476.71 4.42982C475.4 3.08982 473.58 2.15982 471.59 2.15982C467.94 2.15982 464.42 5.30982 464.42 9.41982C464.42 13.5298 467.91 16.6598 471.63 16.6598C473.68 16.6598 475.42 15.6898 476.73 14.4098L477.91 16.0498C476.4 17.5498 474.36 18.7198 471.68 18.7198C466.64 18.7198 462.34 14.5598 462.34 9.41982Z" fill="white"/>
<path d="M517.149 15.5101H507.239L505.909 18.4901H503.689L512.079 0.0600586H512.299L520.699 18.4901H518.469L517.139 15.5101H517.149ZM516.359 13.7301L512.199 4.40006L508.029 13.7301H516.349H516.359Z" fill="white"/>
<path d="M556.82 2.35984H551.56V18.4898H549.51V2.35984H544.23V0.339844H556.82V2.36984V2.35984Z" fill="white"/>
<path d="M584.221 0.339844H586.271V18.4898H584.221V0.339844Z" fill="white"/>
<path d="M614.061 9.41982C614.061 4.26982 618.261 0.0698242 623.381 0.0698242C628.501 0.0698242 632.711 4.26982 632.711 9.41982C632.711 14.5698 628.511 18.7198 623.361 18.7198C618.211 18.7198 614.051 14.5298 614.051 9.41982H614.061ZM630.651 9.40982C630.651 5.40982 627.381 2.13982 623.371 2.13982C619.361 2.13982 616.131 5.41982 616.131 9.40982C616.131 13.3998 619.381 16.6498 623.371 16.6498C627.361 16.6498 630.651 13.3998 630.651 9.40982Z" fill="white"/>
<path d="M675.1 0.290059V18.7701H675L662.56 4.95006V18.5101H660.51V0.0600586H660.62L673.05 13.8701V0.290059H675.1Z" fill="white"/>
</g>
</svg>
