<svg width="62" height="62" viewBox="0 0 62 62" fill="none" xmlns="http://www.w3.org/2000/svg">
<path d="M60.4946 30.7201C60.4946 14.2786 47.1661 0.950109 30.7246 0.95011C14.2831 0.950111 0.954588 14.2786 0.954589 30.7201C0.954589 47.1616 14.2831 60.4901 30.7246 60.4901C47.1661 60.4901 60.4946 47.1616 60.4946 30.7201Z" stroke="white" stroke-width="1.89" stroke-miterlimit="10"/>
<path d="M44.96 23.53C44.96 37.31 30.72 51.1 30.72 51.1C30.72 51.1 16.48 37.32 16.48 23.53C16.48 15.66 22.86 9.29004 30.72 9.29004C38.58 9.29004 44.96 15.67 44.96 23.53Z" stroke="white" stroke-width="1.89" stroke-miterlimit="10"/>
<path d="M30.7201 30.19C34.3983 30.19 37.3801 27.2082 37.3801 23.53C37.3801 19.8518 34.3983 16.87 30.7201 16.87C27.0418 16.87 24.0601 19.8518 24.0601 23.53C24.0601 27.2082 27.0418 30.19 30.7201 30.19Z" stroke="white" stroke-width="1.89" stroke-miterlimit="10"/>
</svg>
