<svg width="62" height="63" viewBox="0 0 62 63" fill="none" xmlns="http://www.w3.org/2000/svg">
<path d="M60.4914 31.5567C60.4914 15.1151 47.1629 1.78666 30.7214 1.78666C14.2799 1.78666 0.951416 15.1151 0.951416 31.5567C0.951416 47.9982 14.2799 61.3267 30.7214 61.3267C47.1629 61.3267 60.4914 47.9982 60.4914 31.5567Z" stroke="white" stroke-width="1.89" stroke-miterlimit="10"/>
<path d="M24.6402 23.7599V30.2999H16.9902V39.1599H24.6402V60.7199C26.6002 61.1299 28.6402 61.3399 30.7202 61.3399C31.7602 61.3399 32.7802 61.2899 33.7902 61.1799V39.1599H41.4202L42.5602 30.2999H33.7802V24.6399C33.7802 22.0699 34.4902 20.3299 38.1702 20.3299H42.8602V12.3999C42.0502 12.2899 39.2602 12.0499 36.0202 12.0499C29.2502 12.0499 24.6202 16.1799 24.6202 23.7699L24.6402 23.7599Z" stroke="white" stroke-width="1.89" stroke-linejoin="round"/>
</svg>
