<svg width="62" height="63" fill="none" xmlns="http://www.w3.org/2000/svg"><path d="M60.488 31.6358C60.488 15.1942 47.1595 1.86576 30.718 1.86576C14.2765 1.86576 0.947998 15.1942 0.947998 31.6358C0.947998 48.0773 14.2765 61.4058 30.718 61.4058C47.1595 61.4058 60.488 48.0773 60.488 31.6358Z" stroke="white" stroke-width="1.89" stroke-miterlimit="10"/><path d="M48.0502 18.42C48.0502 18.42 48.0502 18.39 48.0502 18.35C48.0502 18.34 48.0502 18.32 48.0502 18.3C48.0502 18.26 48.0502 18.22 48.0502 18.17C48.0502 18.14 48.0502 18.11 48.0402 18.08C48.0402 18.03 48.0302 17.97 48.0202 17.91C48.0202 17.87 48.0002 17.82 48.0002 17.78C48.0002 17.74 47.9902 17.71 47.9802 17.68C47.9802 17.68 47.9802 17.68 47.9802 17.69C47.8502 17.13 47.5502 16.35 46.7902 15.69C46.6902 15.6 46.6202 15.53 46.5602 15.46L44.3602 13.49L43.4502 12.76C42.3602 11.81 40.7002 11.92 39.7502 13.01L35.1502 18.28C34.2002 19.37 34.3102 21.03 35.4002 21.98L39.3702 25.45C37.8502 28.46 36.2102 31.25 33.3902 34.47C30.9302 37.28 28.8602 38.96 26.5002 40.64L22.3002 36.97C21.2102 36.02 19.5502 36.13 18.6002 37.22L14.0002 42.49C13.0502 43.58 13.1602 45.24 14.2502 46.19L17.4302 48.97C17.8602 49.3 18.2802 49.53 18.6702 49.7C19.0602 49.87 19.4202 49.97 19.7202 50.03C20.3302 50.15 20.7202 50.1 20.7302 50.1C21.0602 50.04 21.5502 50.07 22.0802 50.07C22.6102 50.07 23.1802 50.06 23.6602 49.91C27.4002 48.72 32.7902 46.33 38.9302 39.31C39.7002 38.43 40.4002 37.57 41.0402 36.73C42.3302 35.04 43.3802 33.41 44.2502 31.87C44.6802 31.1 45.0702 30.35 45.4202 29.62C45.7702 28.89 46.0702 28.18 46.3502 27.5C46.4902 27.16 46.6102 26.82 46.7302 26.49C46.9702 25.83 47.1802 25.2 47.3602 24.59C47.6302 23.68 47.8502 22.82 48.0302 22.04C48.3302 20.73 48.0002 19.22 48.0802 18.43L48.0502 18.42Z" stroke="white" stroke-width="1.89" stroke-linejoin="round"/></svg>