<svg width="275" height="32" fill="none" xmlns="http://www.w3.org/2000/svg"><g clip-path="url(#clip0_20_2218)"><path d="M0 15.7298C0 7.22984 7.1 0.0898438 15.58 0.0898438C19.49 0.149844 23.11 1.80984 26.06 4.69984L23.31 8.42984C21.19 6.30984 18.44 4.90984 15.48 4.90984C10.01 4.90984 4.79 9.69984 4.79 15.7498C4.79 21.7998 10.09 26.5298 15.5 26.5298C18.59 26.5298 21.25 24.9898 23.33 22.9398L26.06 26.7598C23.46 29.3198 20.14 31.2898 15.65 31.2898C7.1 31.2898 0 24.2498 0 15.7298Z" fill="black"/><path d="M29.98 15.7498C29.98 7.12984 36.98 0.0898438 45.57 0.0898438C54.16 0.0898438 61.18 7.12984 61.18 15.7398C61.18 24.3498 54.14 31.2798 45.55 31.2798C36.96 31.2798 29.97 24.2798 29.97 15.7398L29.98 15.7498ZM56.4 15.7098C56.4 9.73984 51.51 4.86984 45.56 4.86984C39.61 4.86984 34.76 9.73984 34.76 15.7098C34.76 21.6798 39.61 26.4898 45.56 26.4898C51.51 26.4898 56.4 21.6398 56.4 15.7098Z" fill="black"/><path d="M92.6901 0.539844V31.3198H92.4701L73.1701 11.1598V30.8398H68.4301V0.0898438H68.6701L87.9401 20.2198V0.539844H92.7001H92.6901Z" fill="black"/><path d="M120.29 5.32012H112.2V30.8001H107.44V5.32012H99.35V0.620117H120.28V5.32012H120.29Z" fill="black"/><path d="M142.2 26.21H127.92L125.86 30.8H120.73L134.91 0H135.19L149.38 30.8H144.25L142.19 26.21H142.2ZM140.36 22.15L135.06 10.35L129.74 22.15H140.35H140.36Z" fill="black"/><path d="M151.37 15.7301C151.37 7.2301 158.47 0.100098 166.95 0.100098C170.86 0.160098 174.48 1.8201 177.43 4.7101L174.68 8.4401C172.56 6.3201 169.81 4.9201 166.85 4.9201C161.38 4.9201 156.16 9.7101 156.16 15.7601C156.16 21.8101 161.46 26.5401 166.87 26.5401C169.96 26.5401 172.62 25.0001 174.7 22.9501L177.43 26.7701C174.83 29.3301 171.51 31.3001 167.02 31.3001C158.46 31.3001 151.37 24.2601 151.37 15.7401V15.7301Z" fill="black"/><path d="M203 5.32012H194.91V30.8001H190.15V5.32012H182.06V0.620117H202.99V5.32012H203Z" fill="black"/><path d="M223.48 19.3601V0.620117H228.23V19.3401C228.23 23.5101 231.17 26.5701 234.86 26.5701C238.55 26.5701 241.52 23.5201 241.52 19.3401V0.620117H246.29V19.3601C246.29 26.2901 241.29 31.3601 234.87 31.3601C228.45 31.3601 223.47 26.2901 223.47 19.3601H223.48Z" fill="black"/><path d="M252.96 25.5001L256.7 22.8201C258.05 25.1801 260.56 26.5301 263.46 26.5301C266.85 26.5301 269.41 24.9001 269.41 22.6001C269.41 19.8101 265.44 18.1301 261.92 16.6101C258.38 15.0401 254.45 13.2001 254.45 8.47008C254.45 3.74008 258.74 0.0800781 264.17 0.0800781C268.48 0.0800781 271.7 2.16008 272.93 5.47008L269.41 7.90008C268.47 5.86008 266.4 4.72008 264.2 4.72008C261.43 4.72008 259.22 6.44008 259.22 8.58008C259.22 10.9401 262.01 11.7801 265.68 13.3501C270.45 15.4501 274.16 17.7501 274.16 22.5101C274.16 27.8601 269.52 31.3101 263.39 31.3101C258.43 31.3101 254.67 28.9901 252.94 25.5101L252.96 25.5001Z" fill="black"/></g><defs><clipPath id="clip0_20_2218"><rect width="274.17" height="31.36" fill="white"/></clipPath></defs></svg>