<svg xmlns="http://www.w3.org/2000/svg" viewBox="0 0 834 246" fill="#fff"><path d="M537.5,234.9c-0.5-0.5-0.6-0.5-0.6-0.7c0-0.1,0.6-3.2,0.6-3.6l-0.2-0.1c-1.8,5.7-2.4,4.2-7.6,4.3
	c-1.5,0-1.5-0.3-1.5-1.3v-7.2l1.5-0.8v7.7c0,0.6,0.3,0.7,0.6,0.7c2.9,0,1.8-2.3,2-4.2c0.5,0.2,1.6,0.6,1.7,1.8c0,0.2,0,0.4,0.4,0.4
	c3.4,0.2,2-5.5,2.4-8.3c1.8-1-0.4-1.7-1.2-2.3c-0.9-0.7-1.5,0.6-1.8,1.3l-1.6,0.8v-3.8c2.3-1.4-2.1-1.1-2.6-1.3v6.6l-1.5,0.8v-4.3
	c2.2-1.3-2.2-1.1-2.7-1.3v4.2c-1.6-1.4-1.4-0.8-2.4,0.6v-4.6c2.9-0.9-2.1-1.1-2.6-1.3v6h-2.5l0.3,0.5h2.2v6.7
	c-1.2,0.2-1.4,0.2-2.7,0.4c0.3,0.3,0.6,4.6,1.6,2.6c1.6-0.8,3.4-1.8,6.1-3.3c-0.1,3-0.4,5.7,3.1,5.5h6.3l0,0
	C535.8,237.4,539.1,236.5,537.5,234.9z M532.4,224.2l1.7-0.9v5.1c0,1-0.2,1-1.7,1V224.2z M525.7,227.4l-2.3,1.2l0.5,0.3l1.8-1v3.1
	c-0.4,0.1-2.3,0.5-2.4,0.5v-6.2h2.4L525.7,227.4L525.7,227.4z M321.3,234.5h-2.7v-1.6h1.1v-8.8H318c-0.1,3,0.4,8.1-0.4,10.9h-3.1
	c1-3,0.3-12.9,0.5-16.3h7.9c0-0.8-0.1-1.8-0.1-2.6h2.8l0,0c0,0.9,0.1,1.8,0.2,2.6h2.9v1.6h-2.8c0.1,1.6,0.2,3.1,0.4,4.7
	c0.2-0.9,0.5-1.8,0.6-2.9h1.8c-0.3,2.5-0.9,4.8-1.7,7.1c0.4,1.8,0.9,3.8,1.7,5.7h-2.7c-0.2-0.5-0.5-0.9-0.6-1.4l-0.6,1.5h-2.1
	c0.6-1.4,1.3-2.9,1.8-4.3c-0.7-3.1-1.2-6.8-1.4-10.3H318v2.2c1.2,0.2,4.6-0.6,4.6,1.3v9.2C322.7,234,322.1,234.5,321.3,234.5z
	 M300.5,220.6v1.2h1.8v22.7h-2.1v-20.7h-21.3v20.7h-2.2v-22.7h1.8v-1.2h-1.8v-0.9c-0.7-0.1-1.5-0.6-2-1.3c0-0.4,0.4,0.1,2,0.2
	c1.1,0.1,3-0.6,4.1-0.9c0.5-0.1,0.3-0.7,0.3-1.1c0,0-0.4-0.8-0.2-0.7c1.8,1.1,2.7-1.6,2.4-3c2.4,3.4,10.1,0.6,11.7-2.3l0.5,2.5
	c1.1,1.2,2.7,4.9,4.7,4.6c0.9,0,1.8-0.2,2.6-0.5c0.1,0.1-0.3,0.5-0.4,0.6v2.9H300.5z M276.6,220.6L276.6,220.6L276.6,220.6
	L276.6,220.6z M298,234.3v-6.1h1v-1.9h-15.5V240h2v-11.6H296v4.2h-15.9v12.1h2v-10.2L298,234.3L298,234.3z M290.7,224.7h-2V240h8.2
	v2.5h-13.4v2H299V238h-8.2L290.7,224.7z M313.1,231.9l1.3-0.2v1.6l-5.6,0.6v-1.6l1.2-0.1V217h3.1 M308.8,221.8v-1.6h5.6v1.6
	 M386,222.7h-6.2v-1.6h6.2V222.7z M379,234.6c8.5-0.4,8.1,2.2,7.9-7.2H379V234.6z M382.2,229h1.7v4.1h-1.7V229z M379.9,224.2h6.2
	v1.6h-6.2V224.2z M323.3,241.3c-1,1.8,1.8,3.5,2.6,1.5h0.8c-0.6,2.6-4.6,1.9-4.4-0.7c-0.2-2.7,3.8-3.2,4.4-0.7h-0.8
	C325.5,240.2,323.7,240.2,323.3,241.3z M326.4,218.3l-0.2-1.7h2.1l0.2,1.7H326.4z M387.2,219.5h-8.3v-1.6h2.7v-1.8h3.1v1.8h2.5
	V219.5z M387.1,224.4c1.7-2,1.4-5.5,1.4-8h9v6.1c0,0.6,1,0.3,1.4,0.4v1.6c-1-0.2-4.5,0.7-4.4-1.1V218h-2.8c0,2.2,0.1,4.7-1.3,6.5
	l0,0H387.1z M335.8,222.2h-3.2v-4h8.2v-2h3.1v2h8.3v4H349v-2.4h-13.2V222.2z M357.5,228.5h-2.4c0,0,0.7,1.3,2.1,2.8
	c-0.5,1.3-0.8,2.5-1.3,3.8h3.4c0.2-0.5,0.4-1,0.6-1.5c2.7,2.5,12.2,1.2,15.4,1.5v-1.6h-4.8v-2h4.9v-1.6h-4.9v-1.6h4.4v-1.6h-4.4
	v-1.6h4.3v-3h0.6v-1.6h-0.6v-3h-4.3v-1.3h-3.1v1.4h-3.6v1.6h3.6v1.5h-4.6v1.6h4.6v1.5h-3.6v1.6h3.6v1.6h-4.2v1.6h4.2v1.6h-4.6v1.6
	h4.6v1.9c-2.4,0.1-5.1-0.1-6.8-1.7c0.6-1.8,1.5-4.7,1.9-6.7h-2.8c0.8-2.3,1.9-5.7,2.6-8.1h-6.7v1.6h2.9c-0.6,2.5-1.7,5.5-2.5,7.8
	h2.8c-0.3,0.9-0.5,1.8-0.7,2.8L357.5,228.5z M370.4,219.2h1.5v1.5h-1.5V219.2z M370.4,222.2h1.5v1.5h-1.5V222.2z M558.5,236.1
	c0.3,0.2,0.3,0.6-0.1,0.6l0,0h-15.5l-0.3-0.5h6.8v-3.4h-3.3l-0.3-0.5h3.6v-2.8h-1.8c-0.5,0.8-1.8,3-3.8,4.3l-0.1-0.1
	c1.3-1.8,1.8-5.6,1.9-7.2c0.5,0.3,5.2,0.8,2.6,1.6c-0.2,0.5-0.3,0.6-0.5,0.9h1.7v-2.8c0.6,0.1,5.3,0,2.8,1.2v1.6h2.4
	c0.2-0.2,1.2-1.7,1.5-1.7c0.3,0,1.8,1.5,2.1,1.6c0.3,0.2,0.3,0.6-0.1,0.6h-5.8v2.8h1.8c0.2-0.2,1.2-1.7,1.5-1.7s1.8,1.5,2,1.6
	c0.3,0.2,0.3,0.6-0.1,0.6h-5.3v3.4h2.6c0.2-0.2,1.1-1.8,1.5-1.8C556.5,234.3,558.2,236,558.5,236.1z M559.4,225.4
	c0,0.2-0.2,0.2-0.3,0.2l0,0h-15.3c0.2,4.5-0.1,8.9-3.9,11.6l-0.2-0.2c1.8-2.5,1.3-9.3,1.3-13.5l3.3,1.7h8.3
	c-0.4-0.2-2.2-1.3-2.8-1.4c-1.5,0.4-3.1,0.7-6.6,0.7v-0.2c1-0.2,2.6-0.5,4.6-1.2c-1.3-0.4-1.7-0.5-3.9-0.9v-0.2
	c1.8-0.1,3.2-0.1,5.8,0.2c1-0.5,1.6-0.8,1.8-1h-11.4l-0.3-0.5h7.9v-2.5c0.6,0.2,5.4-0.1,2.8,1.1v1.4h3.7c0.2-0.2,1.3-1.8,1.6-1.8
	c0.3,0,1.9,1.6,2.2,1.7c0.3,0.2,0.3,0.6-0.1,0.6h-4.6c0.4,0.3,1.9,1,0.8,1.2c-0.7-0.2-1.3,0.3-1.8,0.5c0.8,0.2,2.7,1.4,1.6,2.3h1.5
	c0.5-0.4,1.4-2.4,1.8-1.6C557.7,223.8,559.4,225.1,559.4,225.4z M347,239.8h0.9l-1.8,4.6h-0.7l-1.8-4.6h0.9l1.4,3.5L347,239.8z
	 M381.9,239.8h3.8v0.7h-1.5v3.9h-0.8v-3.9h-1.5V239.8z M380.2,239.8h0.8v4.6h-0.8l-2.4-3.3v3.3H377v-4.6h0.8l2.4,3.3V239.8z
	 M370.5,239.8h0.8v4.6h-0.8v-3.2l-1.4,1.8l-1.5-1.8v3.2h-0.8v-4.6h0.8l1.5,1.9L370.5,239.8z M372.6,239.8h3.5v0.8h-2.7v1.1h2.4v0.8
	h-2.4v1.1h2.7v0.8h-3.5V239.8z M394.6,231.1c1.3,1.2,2.8,2.5,4.5,3.9h-4.1c-0.8-0.6-1.6-1.3-2.3-1.9c-0.6,0.7-1.4,1.4-2.1,1.9h-4.1
	c1.7-1.4,3.1-2.7,4.3-4c-1-1.2-2-2.5-3-3.7h3.4c0.5,0.6,0.9,1.2,1.4,1.8c0.6-0.7,1.3-1.6,1.8-2.4h-7.4c0-0.3,0-1.3,0-1.6h11.2
	C400,225.5,395,230.4,394.6,231.1L394.6,231.1z M494.8,227.1c0-0.6-0.6-2.4-2.4-3c0.5-0.5,1.3-1.3,1.4-1.3c2.5-0.2-1.6-1.4-1.8-1.7
	c-0.2,0.6-0.4,0.8-0.6,1.5c-0.3-0.5-0.6-0.9-1-1.2c0.8-0.5,1.4-0.8,2.3-1.5c2.3-0.1-2-1.5-2.2-1.7c-0.2,1-0.6,2-1,2.7
	c-0.6-0.2-1.1-0.4-1.8-0.4l-0.1,0.2c2.1,1.2,0.7,3.1,2.8,3.7c-0.6,0.8-0.9,1.4-1.1,1.6c-0.1,0-0.5,0-0.6,0c-0.4-0.6-1.2-1.4-2-1.8
	c0.6-0.5,0.9-0.8,1.6-1.3c2.5-0.1-1.6-1.4-1.8-1.7c-0.1,0.2-0.5,1-0.6,1.1c-0.1-0.3-0.3-0.5-0.7-0.8c0.3-0.2,1.1-0.7,2.2-1.7
	c2.5-0.1-2-1.5-2.3-1.7c-0.3,1.7-0.6,2.2-0.8,2.8c-0.6-0.3-1-0.5-1.6-0.6c0.1-0.2,0.1-0.3,0.1-0.6c2.8,0.2,0.3-1.3-0.6-1.8
	c-0.4,0-0.9,1-1.1,1.3h-6.1l0.3,0.5h1V231c-0.2,0-1,0.2-1.2,0.2c0.2,0.3,1,4.8,1.6,2.5c2.8-1.9,3-2.2,3.4-2.5v5.7
	c-0.2,1.1,2.1,0.8,2.2-0.2v-10.2c0.3,0.4,0.8,2.9,1.4,1.4c0.6-0.3,2.1-1,3-1.5c-0.4,1.8,1.8,1.9,2.1,0.6c0.1,0.3,0.4,1.1,0.6,1.2
	l-0.6-0.1v9c0,0.4,0.4,0.5,0.6,0.5c0.5-0.1,1.7-0.2,1.7-0.9v-3.9h0.9v0.8c0.1,1,2.2,0.2,2-0.6v-3.2c1.8-1.1-1.7-0.9-2-1v3.5h-0.9v-3
	c1.8-0.8-0.6-0.9-1.2-1c0.1-0.2,0.1-0.2,0.2-0.5c0.6-0.3,2.5-1.4,2.8-1.6c-0.1,0.7-0.1,1.6,1,1.7l0,0
	C494.2,228.2,494.8,227.9,494.8,227.1z M479.9,227.7v3c-0.3,0-1.4,0.2-1.6,0.2v-3.3L479.9,227.7L479.9,227.7z M479.9,227.1h-1.6
	v-3.2h1.6V227.1z M479.9,223.3h-1.6v-2.5c0.4,0,0.7-0.3,0.6-0.6h1V223.3L479.9,223.3z M482.1,226.2v-5.3c2.1,1.1,0.6,3.4,2.6,3.7
	c-0.2,0.4-0.6,0.9-1,1.5C483.5,226.2,482.4,226.2,482.1,226.2z M485.6,226.1c-0.6,0-0.6,0.1-0.9,0.1c0.2-0.2,0.6-0.5,1.4-1.2
	c0.3,0.6,0.5,0.9,0.5,1.2C486.3,226.1,486.2,226,485.6,226.1z M490.1,226c0.6-0.5,1.6-1.2,1.8-1.5c0.2,0.2,0.6,0.7,0.7,1.3
	C492.2,225.9,490.5,226,490.1,226z M516.4,236.5c0,0.6-0.6,1.2-1.3,1.2l0,0c-0.4,0-0.7-0.1-1.2-0.8c-1-1.8-2-2.9-3.3-3.1v-0.3
	C513,233.1,516.5,234.3,516.4,236.5z M464.6,213.3v28.5l0.5,0.9h-9.9c0.9-0.2,0.4-10.8,0.5-11.4l0,0c0-8.5-12.8-8.2-12.8,0
	c0.1,0.6-0.4,11.2,0.5,11.4h-9.9l0.5-1v-28.4l-0.5-0.9H465L464.6,213.3z M488.7,228.9c0,0.2-0.2,0.3-0.6,0.5c0,4.8,0,7-5.8,8.5
	l-0.1-0.2c2.5-1.2,3.6-3.4,3.6-4.6h-0.7c0,0.4,0.1,0.8-0.4,1c-0.5,0.2-1.8,0.6-1.8-0.2V229c0.4,0.1,4.1,0.1,2.2,1v2.6h0.7v-4.1
	C486.2,228.6,488.6,228.4,488.7,228.9z M328.9,239.8l-1.9,4.6h0.9l0.6-1.2h1.9l0.6,1.2h0.9l-1.9-4.6H328.9z M328.8,242.4
	L328.8,242.4l0.6-1.5l0.6,1.5H328.8z M339.4,239.8h3.5v0.8h-2.7v1.1h2.4v0.8h-2.4v1.1h2.7v0.8h-3.5V239.8z M337.8,240.3
	c-0.7-0.9-2.5-0.6-3.5-0.6v4.6c0.6,0,2.2,0.1,2.8-0.2C338.6,243.7,338.8,241.4,337.8,240.3z M337.4,242.8c-0.4,0.9-1.6,0.7-2.3,0.7
	v-3C336.7,240.2,338.2,241.1,337.4,242.8z M364.2,239.8L364.2,239.8h-2.1v4.6h0.8v-1.6c0.7,0,2,0.2,2.5-0.5
	C366.5,241.4,365.7,239.6,364.2,239.8z M365.2,241.3c0.1,1.1-1.5,0.7-2.1,0.7v-1.6C363.7,240.6,365.2,240.2,365.2,241.3z
	 M348.5,239.8h3.5v0.8h-2.7v1.1h2.4v0.8h-2.4v1.1h2.7v0.8h-3.5V239.8z M514.8,218.4c-0.6-0.7-1.3,1.1-1.7,1.4h-7.8
	c-0.3-0.3-1.4-1.2-1.8-1.3c-0.4,0-0.9,1.1-1.2,1.3h-5.5l0.3,0.5h1.7c0,4.1-0.8,7.9-2.6,11.2l0.2,0.2c0.9-0.7,1.6-1.7,1.8-2v6.7
	c0,0.4,0.1,0.6,0.6,0.6c1.9,0,1.7-1.1,1.7-2.7h1.4c0,1.5-0.2,2.1,1.7,1.4c0.6-0.3,0.6-0.6,0.6-0.8v-7.2c1.7-0.9,0-1.6-0.7-2.3
	c-0.6-0.6-1.2,0.6-1.6,1.1h-1.3l-0.3-0.2c0.6-1.3,1.2-2.9,1.6-5.2c0.4,0,0.9-0.2,0.7-0.6c1.5,0,4.8,0,6.4,0
	c-0.2,1.9-0.2,2.1-0.4,2.7h-0.1l-2.5-0.9v11.2c0,0.7,0.5,0.7,0.7,0.7c-1.6,2.2-3.5,3.2-4.2,3.6l0.1,0.2c1.7-0.2,4.5-1,7-2.9
	c2.2-0.1-0.9-1.3-1.4-1.5c0.2-0.1,0.2-0.3,0.2-0.5h4.3c-0.2,0.8,2.4,1.1,2.6-0.5v-8.2c0.6-0.4,0.9-0.8,0.4-1.3
	c-0.4-0.2-1.3-1.2-1.8-1.3c-0.4-0.1-1,0.9-1.3,1.2h-2.8c0.7-0.6,1.3-1.2,1.8-1.9c0.8-0.3,0.9-0.3,0.8-0.7
	C514.1,220,519,221.3,514.8,218.4z M500.6,226.8h1.4v7h-1.4V226.8z M512.7,232.6h-4.3v-2.8h4.3L512.7,232.6L512.7,232.6z
	 M512.7,229.2h-4.3v-2.7h4.3L512.7,229.2L512.7,229.2z M512.7,223.5v2.6h-4.3v-2.6H512.7z M360.5,240.4L360.5,240.4
	c-2.1-2.2-5.5,1.1-3.4,3.3C359.3,246,362.7,242.6,360.5,240.4z M360.2,242.8c-1,1.8-3.7,0.2-2.7-1.6
	C358.5,239.5,361.2,241.1,360.2,242.8z M353.8,243.6h2.3v0.8H353v-4.6h0.8V243.6z M348.7,225.5L348.7,225.5h3.5v-1.6h-10.9
	c0.6-1,1.1-2.2,1.6-3.7H340c-0.1,0.2-0.4,1.4-1.9,3.7h-5.5v1.6h4.4c-0.8,1-1.8,2.1-3,3.2l0.4,1.4c2.5,0.2,4.8,0.6,6.8,1
	c-2.8,1.5-4.6,1.6-8.6,1.6v2.3c4.7,0,8.8-0.5,11.8-3c5,1.5,7.9,3.1,7.9,3.1v-2.3c-1.9-1.1-4.2-1.9-6.1-2.6
	C347.3,228.8,348.2,227.2,348.7,225.5z M343.5,229.5c-3-0.7-5.3-1-5.8-1.1l0.4-0.2l0,0c0.6-0.5,1.4-1.4,2.3-2.8h5.6
	C345.4,227.1,344.6,228.4,343.5,229.5z M377.1,149.3h-1V0h1V149.3z M27.9,137h-4.6l0.9-2l-2.2-0.2h4.9v-3.1H16.2V131H24v-3h-7.8
	v-0.7H26v-3.1h-4.7c0.4-0.8,0.9-1.6,1.4-2.5L18,121c-0.3,1-0.8,2.2-1.3,3.2H9.2l2-0.7c-0.3-0.8-0.9-1.9-1.5-2.7l-4,1.1
	c0.4,0.7,0.8,1.5,1.1,2.3H2.2v3.1h9.6v0.7H4.2v3h7.5v0.7H1.3v3.1h5.5l-2.4,0.5c0.3,0.5,0.5,1.2,0.7,1.8H0.3v3.3h27.6V137L27.9,137z
	 M4.3,149.7h4.3v-0.9h10.8v0.8h4.5V141H4.3V149.7z M8.6,134.8h11c-0.2,0.7-0.4,1.5-0.7,2.2H8.3l1.2-0.3C9.3,136.1,9,135.4,8.6,134.8
	L8.6,134.8z M19.4,144.3v1.2H8.6v-1.2H19.4z M41.1,122.6l-4.1-1.4c-1.6,4.2-4.5,8.4-7.4,10.9c0.7,1.1,1.9,3.6,2.3,4.6
	c0.8-0.7,1.5-1.5,2.2-2.4v15.3h4.2v-21.3C39.3,126.4,40.3,124.5,41.1,122.6L41.1,122.6z M52.5,145.3l-3.8,0.1
	c-1.4,0-1.6-0.3-1.6-2.2v-9.9h10.4v-4.2H47.2v-7.4H43v21.4c0,4.7,1.2,6.1,5.3,6.1c6.2,0.1,9.8,0.9,10.1-8.2
	c-1.1-0.2-2.9-1.1-3.9-1.8C54.2,144.2,54,145.3,52.5,145.3L52.5,145.3z M88.1,144.4H77.5v-7.1h8.1V133h-8.1v-5.9h9.8v-4.3h-26v4.3
	h11.6v17.2h-4.5v-13h-4.6v13h-3.5v4.3h27.8V144.4L88.1,144.4z M98.9,139.7l2.5-2.9c-0.5-0.8-2.6-4.2-3.5-5.3v-0.9h2.8v-4.1h-2.8
	v-5.5h-4.2v5.5h-3.5v4.1h3.5c-0.8,3.4-2.3,7.3-4.1,9.6c0.7,1.3,1.6,3.3,2,4.5c0.8-1.2,1.4-2.7,2.1-4.4v9.4h4.2v-12.4
	C98.3,138.2,98.6,139,98.9,139.7L98.9,139.7z M118.7,137.1l-4.5-1.6c-2.4,4.6-8,8.7-15.2,10.5c0.8,1,2,2.7,2.6,3.7
	c3.6-1.1,6.8-2.6,9.6-4.6c1.7,1.5,3.5,3.1,4.4,4.3l3.4-2.8c-1.1-1.2-3-2.8-4.7-4.1C116,140.9,117.4,139.1,118.7,137.1L118.7,137.1z
	 M116.7,130.9l-4.2-1.5c-0.4,0.9-1,1.6-1.5,2.4l-3.4,0.2c0.8-1.3,1.6-2.6,2.4-3.8h8.2v-4h-6c-0.3-1.1-0.9-2.5-1.4-3.6l-4.1,1.3
	c0.3,0.8,0.6,1.6,0.9,2.4H101v3.9h4.6c-1.6,2.5-2.3,3.9-4.8,4.2c0.3,1,0.9,3,1,4c0.7-0.3,1.8-0.5,5.7-0.8c-2,1.7-4.4,3.1-7,4.1
	c0.8,0.8,1.9,2.4,2.4,3.4C108.9,140.5,113.8,136,116.7,130.9L116.7,130.9z M122.3,131.3c-0.3,4.3-1.2,8.7-2.1,12l4.5,1.8
	c0.9-3.5,1.5-8.9,1.9-13L122.3,131.3z M132.7,129.9h-4.6v13.5c0,4.3,1.2,5.7,5.5,5.7c5.8,0.1,9.7,1.1,10-7.6
	c-1.2-0.3-3.1-1.1-4.1-1.9c-0.1,6.9-1.3,5.1-5.3,5.3c-1.3,0-1.5-0.2-1.5-1.7V129.9L132.7,129.9z M131.9,121.2l-3,3
	c2.8,1.9,6.6,4.7,8.3,6.5l3.3-3.5C138.6,125.4,134.6,122.8,131.9,121.2L131.9,121.2z M141,131.9c1.5,3.6,3,8.4,3.5,11.4l4.5-1.9
	c-0.6-3.1-2.1-7.6-3.8-11.2L141,131.9z M168.2,120.4v30.1h1.5v-30.1H168.2z M218.5,147.8l0-4h-4.9v-2h3.7V138h-3.7v-1.8h3.7v-3.9
	h-3.7v-1.9h4.5v-3.9H213l2-0.9c-0.4-1.2-1.3-2.9-2.2-4.3l-3.7,1.6c0.6,1.1,1.3,2.5,1.7,3.6h-3.4c0.7-1.4,1.2-2.8,1.7-4.1l-4.4-1.2
	c-0.9,3.1-2.7,7.2-4.8,9.9v-7.5h-9.4v20.9h4V142h5.4v-9c0.7,0.9,1.4,1.9,1.8,2.6c0.2-0.2,0.4-0.5,0.6-0.7v14.9h4.1v-1.9H218.5
	L218.5,147.8z M196.1,137.7h-1.5v-9.9h1.5V137.7z M209.6,132.3h-3.1v-1.9h3.1V132.3z M209.6,138h-3.1v-1.8h3.1V138z M206.5,141.9
	h3.1v2h-3.1V141.9z M248.3,132.7h-28.1v4.8h28.1V132.7L248.3,132.7z M252.8,130.3l-0.1,6.4h11.7V134h-3.1v-0.8h2.3v-2.5h-2.3V130
	h2.3v-0.7c0.5,0.7,1.1,1.5,1.3,1.9c0.3-0.3,0.6-0.6,0.8-0.9v6.3H278V134h-3.8v-0.8h2.7v-2.5h-2.7V130h2.7v-2.4h-2.7v-0.8h3.5v-2.7
	h-2.4c-0.3-0.9-0.8-2-1.2-2.8l-3.6,1c0.2,0.6,0.4,1.2,0.6,1.9h-1.7c0.3-0.7,0.6-1.3,0.8-2l-3.4-1c-0.6,1.9-1.7,3.9-2.9,5.4v-2.5
	h-1.8c-0.2-0.9-0.8-2.1-1.2-2.9l-3.6,1c0.3,0.6,0.5,1.3,0.7,1.9h-1.7c0.3-0.7,0.6-1.4,0.8-2l-3.3-0.9c-0.9,2.7-2.4,5.2-4.2,6.8
	c0.6,0.7,1.7,2.4,2,3.1C252.2,130.8,252.5,130.6,252.8,130.3L252.8,130.3z M275.4,139.2l-3-1.8l-0.8,0.2h-19.5v3.5h5l-1.9,0.9
	c1.1,1.1,2.3,2,3.6,2.8c-2.6,0.5-5.5,0.8-8.4,1c0.7,1,1.4,2.8,1.8,3.9c4.3-0.5,8.5-1.2,12.1-2.4c3.3,1.2,7,1.9,11.2,2.2
	c0.6-1.2,1.8-3.2,2.7-4.2c-2.8-0.2-5.5-0.5-8-0.9C272.3,143.1,274.1,141.4,275.4,139.2L275.4,139.2z M257.9,126.7v0.8h-1.5v-0.8
	H257.9z M257.9,130.8h-1.5V130h1.5V130.8z M257.9,134h-1.5v-0.8h1.5V134z M268,141.1c-1,0.8-2.2,1.4-3.5,2c-1.6-0.6-3-1.2-4.1-2H268
	z M261.3,127.5v-0.8h2.8c-0.2,0.3-0.4,0.6-0.7,0.8H261.3z M270.8,127.5h-1.5v-0.8h1.5V127.5z M270.8,130.8h-1.5V130h1.5V130.8z
	 M270.8,134h-1.5v-0.8h1.5V134z M291.1,126.1h-4.7l1.8-0.7c-0.4-1.2-1.1-2.9-1.8-4.2l-3.7,1.3c0.5,1.1,1.1,2.5,1.4,3.6h-4.1v3.4h11
	C291.1,129.5,291.1,126.1,291.1,126.1z M305.7,145.4l3.2-1.2c-0.3-1.9-1.5-4.6-2.6-6.6l-2.9,1.1c0.8,1.5,1.5,3.4,2,4.9
	c-1-0.2-2.5-0.9-3.3-1.4c-0.1,4.6-0.6,3.3-3.1,3.5c-0.9,0-1-0.1-1-1v-6c0.9,1.2,1.8,2.6,2.2,3.5l2.7-1.9c-0.6-1.3-2.1-3.2-3.4-4.5
	l-2.5,1.7c0.3,0.4,0.6,0.7,0.9,1.1h-3.6v1.2l-2.8-0.8c-0.1,1.9-0.6,3.8-1.1,5.4v-5.6H281v10.4h3.6v-1.1h5.9v-2.2l2.4,1
	c0.8-1.4,1.3-3.4,1.6-5.5c0,3.4-0.9,8,4.1,7.5c3.9,0.1,6.7,0.8,7-5.3C305.5,144.3,305.7,144.9,305.7,145.4L305.7,145.4z
	 M290.6,130.4h-9.5v3.3h9.5V130.4z M281.1,137.8h9.5v-3.3h-9.5V137.8z M286.9,144.7h-2.3v-2.6h2.3V144.7z M292.2,122.1v3.7h5.6
	c-0.1,1-0.3,2-0.6,3c-1.2-0.9-2.4-1.9-3.4-2.7l-2.3,2.3c1.2,1.1,2.9,2.5,4,3.6c-1,1.2-2.3,2.2-4.2,3c0.9,0.8,2,2.2,2.4,3.1
	c2.7-1.3,4.5-3,5.7-4.9c0.6,1,1,2.5,1.1,3.6c8.7,0.9,6.7-4.6,7.6-14.6C308.1,122.1,292.3,122.1,292.2,122.1z M301.6,125.7h2.2
	c-0.6,6.8,0.6,7.8-4.4,7.3C300.8,130.8,301.3,128.3,301.6,125.7L301.6,125.7z M335.9,142l-2.2-0.4h2.1v-6.9c0.1,0.1,0.4,0.2,0.5,0.4
	c0.6-1,1.9-2.5,2.9-3.2c-1.1-0.7-2.1-1.6-2.9-2.7c0.8-0.5,1.7-1,2.5-1.6l-2.4-2.5c-0.4,0.4-1,0.9-1.6,1.4c-0.1-0.3-0.3-0.6-0.4-0.8
	c0.9-0.6,1.8-1.3,2.6-2l-2.5-2.4c-0.4,0.4-0.8,0.8-1.2,1.2c-0.1-0.6-0.3-1.1-0.4-1.6l-3.6,0.7l0.2,0.9l-2.5-0.8
	c-0.3,0.2-4.8,0.1-5.3,0.1v3.4h3.2c-0.1,0.5-0.3,1-0.5,1.4c-0.7-0.4-1.4-0.8-1.9-1L321,128v-2h-4.6l1.8-1.2
	c-0.5-1.1-1.5-2.8-2.3-4.1l-3,1.8c0.6,1.1,1.4,2.4,1.9,3.5h-4.5v3.4H321v-0.7c0.6,0.4,1.3,0.8,1.9,1.2c-0.8,1-1.6,1.9-2.5,2.5
	c0.9,0.7,2,2,2.6,2.9c0.1-0.2,0.3-0.3,0.5-0.4v6.6h3.1l-2.5,0.7c0.6,1.1,1.1,2.5,1.3,3.5h-4.2v3.5h17.3v-3.5H334
	C334.6,144.6,335.3,143.3,335.9,142L335.9,142z M320.1,148.1l0-9.4h-8.8v10.6h3.3v-1.2H320.1L320.1,148.1z M320,130.3h-8.5v3.3h8.5
	V130.3z M311.5,137.7h8.5v-3.3h-8.5V137.7z M316.8,142.1v2.5h-2.2v-2.5H316.8z M333.2,132.6v-0.9c0.5,0.6,1,1.3,1.5,1.8h-9.9
	c0.5-0.6,1-1.1,1.4-1.7v0.8H333.2L333.2,132.6z M327,136.8h5.1v1.5H327V136.8z M331.6,141.5c-0.3,1.3-0.9,3-1.4,4.1h-2.9l1.9-0.5
	c-0.2-1-0.8-2.5-1.5-3.6H331.6z M327.7,129.2c0.9-1.9,1.5-4.1,1.9-6.5c0.5,2.4,1.2,4.6,2.2,6.5H327.7z M471.1,15
	c-0.2,0.1-1.9,0.1-2.1,0.2c1.1-2.4,2-4.3,2.7-6l-1.4-0.4l-0.3,0.1h-4.2v1.8h3.3c-1.1,2.5-2.2,4.6-3.1,6.5l1.9,0.5l0.4-0.8h2.1
	c-0.2,1.7-0.6,3.2-1.1,4.5c-0.6-0.9-1.1-1.9-1.4-3l-1.6,0.6c0.6,1.7,1.3,3.2,2.1,4.3c-0.7,1.3-1.7,2.4-2.9,3.2
	c0.5,0.3,1,0.7,1.5,1.4c1-0.7,1.9-1.8,2.7-3.1c3.9,3.3,10.7,2.2,15.6,2.4c0.2-0.7,0.4-1.4,0.8-2c-2.7-0.1-12.6,1-15.6-2.2
	c0.9-2,1.5-4.6,1.7-7.7L471.1,15L471.1,15z M477.5,15h-4.4v1.6h4.5v1.3H473v1.5h4.5v1.4H472v1.7h5.5v2.1h2v-2.1h5.9v-1.7h-5.9v-1.4
	h4.9v-1.5h-4.9v-1.3h4.7v-3h1.7v-1.6h-1.7V9.1h-4.7V7.6h-2v1.4h-4.3v1.6h4.3V12h-5.8v1.5h5.8V15L477.5,15z M482.3,10.7V12h-2.7v-1.3
	H482.3z M479.5,14.9v-1.4h2.7v1.4H479.5z M508.1,22.6l-0.1-1.4h-8.9v-1.5h-1.4c1.4-1.1,1.9-3,1.8-4.8h4c0.2,1.2-0.4,3.9,0.5,4.8
	c0.4,0.6,1.7,0.4,2.4,0.4c1.9-0.1,1.9-1.1,2-3.1c-0.5-0.1-0.9-0.4-1.4-0.7c0,1.6,0.1,2.5-1.4,2c-0.1-0.3,0-4.5-0.1-4.9h-7.9
	c-0.1,1.5,0.2,3.7-1.1,4.7l-0.1-1.2c-1.4,0.2-2.4,0.3-3,0.4v-2.4h3v-1.5h-7.8v1.5h3v2.7c-0.6,0.1-2.9,0.4-3.4,0.4l0.3,1.7
	c1.7-0.3,4.2-0.7,7.4-1.2c-0.4,0.2-0.9,0.5-1.5,0.7c0.4,0.2,1.1,1,1.4,1.4c0.5-0.2,0.9-0.4,1.4-0.7v1.1h-8.9v1.7h7.3
	c-2,1.4-5.2,2.5-7.7,3c0.6,0.6,1.1,1.2,1.3,1.7c2.7-0.7,5.9-2.1,8-3.9v4.3h2v-4.3c2,1.8,5.3,3.2,8,3.8c0.3-0.7,0.7-1.3,1.3-1.8
	c-2.6-0.5-5.7-1.4-7.8-2.9H508.1L508.1,22.6z M492.1,10.7c0.6,0.9,0.9,1.6,0.9,2.2l1.7-0.5c-0.2-0.4-0.4-0.9-0.8-1.6h3.7
	c-0.5,0.5-0.9,0.9-1.2,1.1c0.7,0.2,1.3,0.6,1.8,1c0.7-0.6,1.4-1.3,1.9-2.1h1.5c0.6,0.8,1.1,1.5,1.4,2.2l1.7-0.6
	c-0.2-0.4-0.5-1-1-1.6h4.5V9.1h-7c0.2-0.4,0.4-0.8,0.6-1.3l-2-0.5c-0.4,1.2-1.1,2.2-2,3.2V9.1h-5.4c0.2-0.4,0.4-0.8,0.6-1.2
	l-1.9-0.5c-0.7,1.8-1.8,3.3-3.2,4.4c0.6,0.3,1.1,0.7,1.7,1.2c0.6-0.6,1.2-1.3,1.8-2.2H492.1L492.1,10.7z M502.3,18.7l1.3-1.2
	c-0.7-0.8-1.7-1.5-2.9-2.2l-1.2,1.1C500.7,17.2,501.6,18,502.3,18.7z M521.7,25.1V20h6.9v-2h-6.9v-4.4h7.7v-2h-7.7V7.5h-2.1v4.1h-4
	c0.6-1.2,0.9-2.4,1.2-3.3l-2.2-0.5c-1,3.5-2.3,6.2-4,8c0.7,0.4,1.3,0.7,1.9,1.2c0.7-0.9,1.5-2,2.2-3.4h4.9v4.4h-6.3v2h6.3v5.1h-8.7
	v2h19.7v-2H521.7L521.7,25.1z M548.3,14.6l1-0.7c-1.5-0.6-2.7-1.1-3.6-1.3c1.1-0.4,2-0.9,2.9-1.5l-0.4-0.2h3.7V9.2h-7.9V7.5h-2v1.7
	h-7.5v1.7h4.2l-1,0.8c1.4,0.3,2.7,0.6,3.8,1c-1.8,0.4-3.4,0.8-4.8,1c0.2,0.2,0.4,0.6,0.6,1h-2.6c0.1,3.8-0.1,9.9-2,12.1
	c0.7,0.4,1.2,0.9,1.6,1.3c1.9-2.3,2.5-7.4,2.4-11.7h16.3v-1.7H548.3L548.3,14.6z M545.9,23.4l5,0v-1.6h-5V20h5.6v-1.6h-5.6v-1.7h-2
	v1.7h-3c0.2-0.6,0.4-1,0.6-1.4l-1.8-0.4c-0.6,1.8-1.5,3.2-2.7,4.2c0.6,0.3,1.1,0.7,1.5,1.1c0.5-0.6,1-1.2,1.5-1.9h4v1.9h-4.8v1.6
	h4.8v2.2h-6.8v1.7h15.6v-1.7h-6.8V23.4L545.9,23.4z M543.6,13.3c1.5,0.6,2.8,1,3.7,1.4h-8.7C540.4,14.3,542,13.9,543.6,13.3z
	 M543.7,11.9c-1.8-0.6-3.1-0.9-4-1.1h6.5C545.4,11.2,544.5,11.6,543.7,11.9z M573.1,22.1l-0.1,0.2h-4.3c0.2-0.4,0.4-0.6,0.6-0.7
	l-0.2-0.1h5v-4.8h-7.7c0.1-0.2,0.5-0.7,0.6-0.9h7.9v-1.4h-7.1l0.4-0.7l-1.6-0.6c-0.6,1.4-1.6,2.7-2.9,3.7l0.1,0.1l-1-0.4
	c-0.9,1.5-2.2,2.8-3.8,3.8c0.2-2.2,0.2-4.9,0.2-7.3h14.9V8.3h-17c0.1,5.4,0.1,15.3-2.1,18.5c0.8,0.2,1.4,0.6,1.9,1
	c1-1.9,1.7-4.3,2-7.3c0.4,0.6,0.7,1.2,0.8,1.6c0.4-0.3,0.8-0.6,1.1-0.9v6.5h1.8v-8.3c0.7-0.7,1.2-1.4,1.5-2c0.1,0.2,0.2,0.5,0.4,0.9
	c0.2-0.2,0.6-0.5,0.8-0.8v3.7h2c-1,1.2-2.4,2.2-4.2,3c0.6,0.4,0.9,0.7,1.3,1.1c0.8-0.4,1.4-0.8,1.9-1.2c0.4,0.4,1,0.9,1.7,1.3
	c-1.3,0.4-2.7,0.7-4.2,0.9c0.4,0.5,0.6,0.9,0.8,1.4c2-0.3,3.7-0.8,5.1-1.4c1.4,0.6,2.9,1.1,4.7,1.3c0.2-0.6,0.6-1,1-1.4
	c-1.5-0.1-2.9-0.4-4-0.7c1.2-0.8,2.2-1.8,2.8-3L573.1,22.1L573.1,22.1z M571.9,11.5H559V9.9h12.9V11.5z M562.3,13.3
	c-0.7,0.9-1.7,1.9-3,2.7c0.4,0.4,0.9,0.9,1.2,1.3c1.4-1,2.6-2.2,3.5-3.5L562.3,13.3L562.3,13.3z M572,17.6v0.9h-5.1v-0.9H572z
	 M572,19.4v0.9h-5.1v-0.9H572z M569.6,24.9c-1-0.5-1.7-1-2.3-1.5h4.4C571.1,23.9,570.5,24.4,569.6,24.9z M586,19.6v-2.5
	c0.7,0.6,1.2,1.1,1.4,1.4l1-1.3c-0.4-0.3-2-1.4-2.4-1.7h2.4V14H586v-1.6c0.7-0.2,1.5-0.4,2.2-0.7l-1.3-1.1c-1.1,0.4-2.8,0.7-5.3,1
	c0.2,0.4,0.4,0.9,0.5,1.2c0.5,0,1.2-0.1,2.2-0.2v1.3h-2.6v1.5h1.9c-0.7,1.1-1.6,2-2.5,2.7c0.1-2.1,0.1-5.7,0.1-7.8h16.4V8.4h-18.3
	c0.1,5.3,0.2,15.2-1.9,18.4c0.6,0.2,1.2,0.5,1.7,0.9c1.1-2.2,1.8-5.3,2-9.2c0.3,0.4,0.6,0.7,0.9,1.1c0.8-0.6,1.6-1.5,2.4-2.7v2.8
	C584.3,19.6,586,19.6,586,19.6z M590.3,23.2l5.3-0.1v-1.7h-5.2v-2h-1.1c1-0.7,1.9-1.7,2.7-3.2v3.3h1.7v-3.2c0.9,1.4,1.9,2.5,3,3.1
	c0.4-0.6,0.7-1,1.2-1.4c-1.2-0.6-2.3-1.4-3.2-2.7h2.4V14h-3.4v-1.7c0.9-0.2,1.7-0.4,2.5-0.7l-1.3-1.1c-1.1,0.5-3,0.8-5.8,1.1
	c0.2,0.4,0.4,0.8,0.4,1.2c0.6,0,1.4-0.1,2.5-0.2V14h-2.8v1.5h1.8c-0.9,1.3-1.9,2.2-3,2.9c0.5,0.4,0.9,0.8,1.2,1.2h-0.9v6h-2.9v-4.4
	h-2v4.4h-2.6v1.7h16.7v-1.7h-7.3V23.2L590.3,23.2z M667.5,22.5l-0.1-1.8h-9.1c0.1-0.4,0.1-1,0.2-1.7h8.6v-1.8h-8.4v-1.5h6.7V14h-6.7
	v-1.4h7.6v-1.8H662c0.6-0.6,1.2-1.4,1.7-2.3l-2.1-0.6c-0.4,0.8-0.9,1.7-1.7,2.7l0.7,0.2h-5.8l0.6-0.2c-0.2-0.8-0.9-1.7-1.7-2.6
	l-1.7,0.7c0.7,0.7,1.1,1.5,1.4,2.2h-4v1.8h7.5V14h-6.4v1.7h6.5v1.5h-8.4V19h8.2c-0.1,0.6-0.2,1.1-0.3,1.7h-8v1.7h7.3
	c-1.7,2.5-4.2,2.9-7.6,3.5c0.5,0.6,0.9,1.2,1,1.8c4.3-0.8,7.2-1.6,8.9-5.1c1.9,3.5,4.7,4.6,8.8,5.2c0.2-0.6,0.6-1.2,1.2-1.9
	c-3.9-0.4-6.6-1.5-7.9-3.5H667.5L667.5,22.5z M670.3,8.9v19h1.9v-0.9h14v0.9h2v-19H670.3L670.3,8.9z M672.2,10.7h14v14.4h-14V10.7z
	 M683,15.5c-0.3,1.3-0.7,2.5-1.1,3.5c-0.2-1.4-0.5-2.8-0.6-4.3h4.2v-1.5h-1.3l0.9-1c-0.5-0.5-1.2-1-2.2-1.4l-0.9,0.9
	c1,0.4,1.7,1,2.1,1.5h-3c-0.1-0.9-0.1-1.6-0.1-2.1h-1.7l0.1,2.1h-6.1v1.5h6.3c0.2,2.6,0.6,4.6,1.1,6.1c-0.4,0.6-0.9,1-1.3,1.4
	l-0.1-1.4c-3.8,0.6-5.8,0.9-6.2,0.9l0.2,1.5c0.8-0.1,5-0.9,6-1.1c-0.6,0.5-1.2,0.9-1.7,1.2c0.4,0.4,0.8,0.8,1.1,1.2
	c0.9-0.6,1.8-1.4,2.5-2.2c1.4,2.9,4.4,2.4,4.4-1c-0.4-0.2-0.9-0.6-1.2-0.9c-0.1,3-1.1,2.5-2,0.5c1.1-1.5,1.8-3.3,2.3-5.1L683,15.5
	L683,15.5z M673.9,20h4.7v-4.2h-4.7V20z M675.1,18.9V17h2v1.9H675.1z M692,26.1h2.5v-6.9h5.8v-2.1h-5.8v-4.8h6.8v-2.1H692V26.1
	L692,26.1z M704.4,11.9c2,0.1,2-3,0-3C702.4,8.9,702.4,12,704.4,11.9L704.4,11.9z M705.7,26.1V14.1h-2.4v11.9H705.7z M714.8,26
	l-0.4-1.9c-4.5,2.1-2.6-5.9-3-7.9h3v-2h-3v-3.3h-2l-0.2,3.3l-1.8,0.1v1.9h1.7c0.3,3-1.4,10.6,3.6,10.2C713.3,26.4,714,26.2,714.8,26
	z M721.3,26.1c0.6-2.5,1.7-6.8,2.2-9.4h0.1c0.5,2.7,1.6,6.9,2.2,9.4h2.9l3-11.9h-2.3c-0.6,2.2-1.9,7.7-2.2,9.9h-0.1
	c-0.5-2.3-1.9-7.6-2.5-9.9h-2.3c-0.7,2.8-1.7,6.8-2.4,9.9h-0.1c-0.5-2.9-1.6-7.2-2.2-9.9h-2.5l3.2,11.9H721.3z M738.3,26.4
	c1.4,0,2.7-0.4,4-1.3l-0.9-1.6c-2.5,1.9-6.4,0.7-6.4-2.7h7.6c1.4-5.3-4.5-9.4-8.4-5.1C730.9,19.1,732.9,26.7,738.3,26.4L738.3,26.4z
	 M740.6,19H735C735.1,15,741,14.6,740.6,19z M747.3,26.4c0.6,0,1-0.1,1.3-0.2l-0.3-1.9c-0.6,0.1-1,0-1-0.9V8.8h-2.4v14.5
	C744.8,25.3,745.7,26.4,747.3,26.4L747.3,26.4z M420.6,15.4c-6.6-2.2-0.2-5.6,3.2-2.2l2.2-2.9c-4.6-5.6-16.4-0.8-11.7,6.4
	c1.3,1.9,4.8,2.7,6.6,3.7c4,3.8-4.1,3.7-5.9,1.2l-2.5,3.1c1.9,1.7,4.5,2.7,6.9,2.7C428.3,27.4,429.1,17.1,420.6,15.4z M438,27.4
	c2.2,0,4.7-0.9,6.2-2.4v-8.7h-6.9v3.7h3v3c-10.4,3.9-8-17.2,1.2-9.8l2.4-2.9C430.1-0.7,421.1,26.7,438,27.4L438,27.4z M454.8,15.4
	c-6.6-2.2-0.2-5.6,3.2-2.2l2.2-2.9c-4.6-5.6-16.5-0.8-11.7,6.4c1.3,1.9,4.8,2.7,6.6,3.7c4,3.8-4.1,3.7-5.9,1.2l-2.5,3.1
	c1.9,1.7,4.5,2.7,6.9,2.7C462.5,27.4,463.3,17.1,454.8,15.4z M752.5,26.4h18.4v-2h-18.4V26.4z M753.7,12h16.1v-2h-16.1V12z
	 M755.1,19h13v-2h-13V19z M783.5,25.5v-2h6v-1.6h-6v-1.7h6.9v-1.7h-6.9v-1.5h-2v1.6h-3.7c0.1-0.1,0.7-1.3,0.8-1.5l-1.7-0.5h12.7V8.8
	h-14.3v7.7h1.2c-0.9,1.9-2.1,3.5-3.7,4.7c0.5,0.2,1.1,0.7,1.7,1.2c0.6-0.6,1.3-1.3,2-2.3h4.9v1.7h-5.8v1.6h5.8v2h-8.2v1.7h18.5v-1.7
	H783.5L783.5,25.5z M787.6,10.3v1.5h-10.3v-1.5H787.6z M787.6,13.3V15h-10.3v-1.6H787.6z M793.4,11.5v1.6h7.6v-1.6H793.4z
	 M800.5,20.3h-6.1v7.3h1.7v-0.9h4.5V20.3L800.5,20.3z M794.3,14.4v1.5h6.1v-1.5H794.3z M800.4,18.9v-1.6h-6.1v1.6H800.4z M794.4,8.6
	v1.5h6V8.6H794.4z M798.8,21.8V25H796v-3.2H798.8L798.8,21.8z M801.9,26.6c0.9-1,1.4-2.7,1.7-5.1l-1.6-0.4c-0.3,2.2-0.8,3.8-1.6,4.6
	L801.9,26.6L801.9,26.6z M801.8,12.8c0.7,0.2,1.6,0.6,2.6,1.1c-0.8,1.4-1.9,2.4-3.3,3.1c0.6,0.4,0.9,0.9,1.2,1.5
	c1.7-0.9,2.9-2.1,3.8-3.8c0.6,0.4,1.3,0.7,1.9,1.2l0.9-1.5c-0.7-0.6-1.5-0.9-2.2-1.3c0.2-0.7,0.4-1.6,0.6-2.5h3.2
	c-0.3,4.9,0.4,6.1-3.3,5.5c0.3,0.6,0.5,1.2,0.5,1.9c5.8,1,4.2-4.4,4.7-9.1h-10.4v1.7h3.4c-0.1,0.7-0.2,1.2-0.4,1.8
	c-0.9-0.4-1.7-0.7-2.3-0.9L801.8,12.8L801.8,12.8z M806.6,25.9c-0.6,0-0.6-0.1-0.6-0.7v-5h-1.8c0.1,1.2-0.4,6,0.4,6.9
	c0.5,0.7,2.9,0.4,3.8,0.5c2-0.1,1.9-1.4,2.1-3.4c-0.8-0.2-1.4-0.4-1.7-0.7C808.9,26,808.6,26,806.6,25.9L806.6,25.9z M804.6,18.5
	c1.7,1,2.9,2,3.7,2.9l1.2-1.3c-0.9-0.9-2.6-2.1-3.8-2.7L804.6,18.5L804.6,18.5z M811.6,26.5l1.7-0.7c-0.3-1.6-1.4-3.8-2.4-5.2
	l-1.6,0.7C810.3,22.6,811.3,24.9,811.6,26.5z M814.2,11.5v1.6h7.3v-1.6H814.2z M815,20.2v7.3h1.6v-0.9h4.2v-6.3H815z M832.6,10.7
	c-0.4,0.4-0.9,0.9-1.7,1.6c-0.2-0.3-0.4-0.7-0.7-1.2c0.8-0.6,1.5-1,2.2-1.5l-1.1-1.1c-0.4,0.4-0.9,0.9-1.5,1.4
	c-0.2-0.7-0.4-1.4-0.6-1.9l-1.7,0.4c0.6,2.3,1.4,4.2,2.3,5.6h-4.6c1-1.5,1.7-3.1,2-4.8l-1.1-0.4c-0.1,0.1-3.8,0.1-4,0.1v1.5h3
	c-0.2,0.4-0.4,1.1-0.8,1.7c-0.6-0.5-1.1-0.9-1.5-1.2l-1.1,1.1c0.6,0.4,1.1,0.9,1.7,1.5c-0.8,0.9-1.6,1.6-2.5,2.1v-1.1h-5.8v1.5h5.8
	v-0.2c0.4,0.4,0.7,0.8,0.9,1.3c1-0.7,1.9-1.5,2.7-2.5v0.8h5.7v-1c0.7,1,1.6,1.8,2.5,2.4c0.3-0.6,0.7-1.1,1.2-1.6
	c-0.8-0.4-1.5-1.1-2.3-1.9c0.6-0.3,1.2-0.7,2-1.4L832.6,10.7L832.6,10.7z M815,17.3v1.6h5.8v-1.6H815z M815.2,8.6v1.5h5.6V8.6H815.2
	z M819.2,25h-2.5v-3.2h2.5V25z M825,25.4l1.6-0.4c-0.2-1.1-0.6-2.1-1.1-3.2l-1.7,0.4c0.5,1.1,0.8,2.2,1,3.2h-3.3v1.7h12v-1.7H825
	L825,25.4z M822.9,16.7v5.1h9.1v-5.1H822.9z M824.6,20.2v-1.9h5.4v1.9H824.6z M829.4,21.8c-0.2,1-0.6,2.1-1.1,3.2l1.6,0.4
	c0.1-0.2,0.6-1.3,1.3-3.2L829.4,21.8L829.4,21.8z M621.5,28.8H621V6.2h0.4V28.8z M514.3,70.3l-10.2,0.1c24.2-14.6-3.8-31.6-7.3-12.8
	l3.5,0.9c-0.2-6.3,9.6-7.2,9.7-0.4c0,3-4.1,7.2-14.1,15.3v0.8h18.3V70.3L514.3,70.3z M535.4,66.2c0-5.5-5.3-9-9.9-7.3l5.3-9.2h-4.3
	c-7.1,12.6-8.2,13.8-8.2,16.7C518.1,77.3,535.4,76.6,535.4,66.2L535.4,66.2z M522,66c-0.1-6,9.6-6,9.5,0C531.6,71.9,521.9,72,522,66
	z M539.3,63.9h12v-3.3h-12V63.9z M567.3,60.5c10.7-7.4-7.4-18.1-11-6l3.9,0.8c3.7-7.7,11.6,3.9,1,4.2l-0.6,2.2
	c14.3,0.2,3.9,15.5-1.7,5.6l-3.8,0.9c2,8.5,16.6,7.6,16.6-1.5C571.7,63.4,569.8,61.4,567.3,60.5z M575.6,66.8c0,4.1,3.5,7.7,8.3,7.7
	c9.1,0.4,11.2-12.3,3.5-14.2c6.3-1.8,3.7-11.5-3.4-11c-7-0.4-9.7,9.2-3.4,11C578.5,60.6,575.6,63.1,575.6,66.8L575.6,66.8z
	 M588.4,66.5c0.1,5.3-9.1,5.4-9,0.1C579.4,61.2,588.4,61.1,588.4,66.5L588.4,66.5z M587.3,55.7c0.1,3.8-6.8,3.7-6.7,0
	C580.5,51.9,587.4,51.9,587.3,55.7L587.3,55.7z M624.4,63.1l-7.8,0V52.7h7.1v-3.5h-17.8v3.5h6.9v10.4H605v3.3l-0.1-0.7l-2.7,0.9
	v-8.2h2.6v-3.5h-2.6v-6.7h-3.3v6.7h-3v3.5h3v9.3c-1.7,0.5-2.9,0.9-3.6,1.1l1.3,3.8c4.5-1.7,7.4-2.9,9-3.5l-0.4-2.4h7.7v10.1h3.7
	V66.7h7.9V63.1L624.4,63.1z M606.5,54.7c0.8,2.7,1.3,5.1,1.5,7.2l3.1-0.8c-0.2-2.2-0.8-4.6-1.6-7.1L606.5,54.7L606.5,54.7z
	 M623.2,54.5l-3.4-0.7c-0.4,2.5-0.9,4.9-1.7,7.3l2.9,0.7C621.2,61,622,58.5,623.2,54.5z M682.2,70.3l-10.1,0.1
	c24.2-14.6-3.8-31.6-7.3-12.8l3.5,0.9c-0.2-6.3,9.6-7.2,9.7-0.4c0,3-4.1,7.2-14.1,15.3v0.8h18.3V70.3L682.2,70.3z M685.5,63.9h12
	v-3.3h-12V63.9z M712.9,60.5c10.7-7.4-7.4-18.1-11-6l3.9,0.8c3.7-7.7,11.6,3.9,1,4.2l-0.6,2.2c14.3,0.2,3.9,15.5-1.7,5.6l-3.8,0.9
	c2,8.5,16.6,7.6,16.6-1.5C717.3,63.4,715.4,61.4,712.9,60.5z M748.9,63.1h-10.7v-1.9h8.1V54H724c-0.2,6.7,1.1,15.1-3.8,20.5
	c0.9,0.3,2.5,1.4,3.2,2c2.1-2.4,3.4-6,4-10.5h5.3c-0.7,4.7-2.5,6.6-7.5,7.9c0.7,0.6,1.7,2,2,2.9c3.9-1.2,6.4-2.9,8.1-6.3h7.2
	c-0.1,4.3-2.3,3.4-5.3,3.2c0.6,0.9,0.9,1.9,0.9,3c6.9,0.8,7.8-1.5,8.1-9.1H736c0.1-0.6,0.2-1.1,0.2-1.7h12.5
	C748.8,66,748.8,63.1,748.9,63.1z M721.9,49.2v3.3h26.2v-3.3H721.9z M734.5,63.1h-6.9c0.1-0.9,0.1-1.5,0.1-1.9h6.9V63.1z
	 M742.6,58.5h-15v-1.9h15V58.5z M475,73.7v0.7h-63.7V48.7H475v0.7h-63v24.2H475L475,73.7z M833.8,48.7v25.7H770v-0.7h63V49.5h-63
	v-0.7H833.8L833.8,48.7z M639.8,61.6c-0.1,4.6,7.1,4.6,7.1,0C646.9,57,639.7,57,639.8,61.6z"/><path fill="#0014E6" d="M122,63.2V3.6H73.8v59.7H122z M113.1,53.9H82.9V37.9h30.2V53.9z M113.1,28.6H82.9V12.9h30.2V28.6z M62.1,65V1.8
	h-32V65h9V47h14.1v8.5h-8.8l1.3,9.4H62.1z M53.1,37.7H39v-8.6h14.1V37.7z M53.1,19.8H39v-8.6h14.1V19.8z M0,11.1v44.5h24.4V11.1H0z
	 M15.4,46.2H9v-8.1h6.4C15.4,38.1,15.4,46.2,15.4,46.2z M15.4,28.8H9v-8.3h6.4C15.4,20.5,15.4,28.8,15.4,28.8z M218.5,55.4h4.8v9.4
	h-18.5v-9.4h4.8V1.2h9 M204.8,19.7v-9.4h18.5v9.4 M315.7,38.1l-17.4,17.5h-21.2v9.4h24.4l26.7-26.9h11.1v-9.4h-62.2v9.4L315.7,38.1
	L315.7,38.1z M312.7,19.7h17.6v6.3h9V10.3h-26.6v-9h-9v9.1h-26.6V26h9v-6.3h14.2L287,36.7l28.8,28.3h23.5v-9.4h-20.6l-19.2-18.9
	L312.7,19.7z M266.9,19.7v-9.4H226v54.5h9V38h3v26.7h9l5.4-10.2l1.5,10.2h13.3v-9.4h-5.7l-2-13.9l6.9-12.8h-8.8l-4-27.4h-9l5.8,40.3
	l-4.6,8.6V28.6h-10.9v-9H266.9z M150.5,24.5h-3.9l-3.9-6.8h11.6L150.5,24.5z M152.7,33.9h29.2v30.9h9V33.9h4.1v-9.4h-35.4l3.9-6.8
	h4.8v47.1h9l0-49.1l17.7-4V2.3l-26.7,5.9l0,0h-15.5v-7h-9v7.1h-10.4v0.2v9.2h0.1l4,6.8h-4v9.4h10.3v30.9h9 M148.2,48.3l8.5,16.5h8.4
	L148,32.1l-17.1,32.6h8.7L148.2,48.3z M163.7,47.5v-9.4h-30.4v9.4 M257.7,7.8L257.3,0h9.6v7.8H257.7z M95.6,84.8h6.2v1.4h-2.3v6.5
	h-1.7v-6.5h-2.3V84.8z M111,84.8h1.7v7.9H111v-3.3h-2.9v3.3h-1.7v-7.9h1.7v3.2h2.9V84.8z M117.9,84.8h5.7v1.4h-4v1.8h3.4v1.4h-3.4
	v1.9h4v1.4h-5.7V84.8z M139.5,88.7c1.7-0.7,1.5-3.9-1.6-3.9h-3.5v7.9h3.6C141.3,92.7,141.2,89.2,139.5,88.7z M136.1,86.2h1.6
	c1.4,0,1.5,1.8,0,1.8h-1.6V86.2z M137.9,91.4h-1.8v-1.9h1.8C139.4,89.4,139.4,91.4,137.9,91.4z M145.6,84.8h5.7v1.4h-4v1.8h3.4v1.4
	h-3.4v1.9h4v1.4h-5.7V84.8z M159.4,86.2v6.5h-1.7v-6.5h-2.3v-1.4h6.2v1.4H159.4z M165.6,84.8h6.2v1.4h-2.3v6.5h-1.7v-6.5h-2.3V84.8z
	 M176.3,84.8h5.7v1.4h-4v1.8h3.4v1.4H178v1.9h4v1.4h-5.7V84.8z M193.4,92.7L193.4,92.7L193.4,92.7L193.4,92.7z M190.3,84.8h-3.4v7.9
	h1.7v-3.1h1.2l1.7,3.1h1.9l-1.9-3.4C193.9,88.5,193.5,84.8,190.3,84.8z M190.2,88.3h-1.6v-2.1h1.6C191.8,86.2,191.7,88.3,190.2,88.3
	z M209.7,84.8v1.4h-4v1.9h3.4v1.4h-3.4v3.2H204v-7.9H209.7z M209.7,86.2L209.7,86.2L209.7,86.2L209.7,86.2z M220.6,90
	c0,3.7-6.4,3.7-6.4,0v-5.2h1.7v5.1c0,2,3,1.9,3,0v-5.1h1.7V90z M253.6,92.7L253.6,92.7L253.6,92.7L253.6,92.7z M250.4,84.8H247v7.9
	h1.7v-3.1h1.2l1.7,3.1h1.9l-1.9-3.4C254,88.5,253.7,84.8,250.4,84.8z M250.3,88.3h-1.6v-2.1h1.6C252,86.2,251.9,88.3,250.3,88.3z
	 M242,90c0,3.7-6.4,3.7-6.4,0v-5.2h1.7v5.1c0,2,3,1.9,3,0v-5.1h1.7V90z M225,84.8h6.2v1.4h-2.3v6.5h-1.7v-6.5H225V84.8z M258.1,84.8
	h5.7v1.4h-4v1.8h3.4v1.4h-3.4v1.9h4v1.4h-5.7V84.8z M83.3,82.9v10L82,91.6v-6.4h-1.7v6.4L79,92.9v-10H83.3z M82.2,83.9H80l-4.3-4.1
	v16.1h10.7v-16L82.2,83.9z M78,82v11.9l-1.3,1.3V80.8h8.8v14.4l-1.3-1.3V82H78z M536.4,136.4c-0.1,21.6-32.7,23.4-37.9,3.9l11-2.8
	c0.8,3.3,4,5.5,7.9,5.5c14.1-2,7.4-18.5-6.9-17.5l1.7-6.4c5.6,0,10-3,10-7.1c0.2-5.9-8.6-7-9.7-1.2l-11.5-2.4
	c3.4-17.1,32.1-16.4,32.4,2.7c0,5-2.4,9.1-6.1,10.9C532.1,124.2,536.4,129.2,536.4,136.4z M580.9,136.4
	c-0.1,21.6-32.7,23.4-37.9,3.9l11-2.8c0.8,3.3,4,5.5,7.9,5.5c14.1-2,7.4-18.5-6.9-17.5l1.7-6.4c5.6,0,10-3,10-7.1
	c0.2-5.9-8.6-7-9.7-1.2l-11.5-2.4C549,91.3,577.6,92,578,111c0,5-2.4,9.1-6.1,10.9C576.6,124.2,580.9,129.2,580.9,136.4z
	 M624.6,97.7v2.1l-21.1,53.7h-11.8l17.1-44.8h-22.4V97.7L624.6,97.7L624.6,97.7z M624.3,121.3h27.3v9.8h-27.3V121.3z M697.5,135.1
	c0.3,24.2-39.5,26.2-39.2,0.6c0-5.5,1.8-8.2,17.9-38l12.8,0.1l-11.6,20.6C687.3,115.8,697.5,123.6,697.5,135.1L697.5,135.1z
	 M686.4,134.7c-0.1-11-16.8-11-16.9,0.1C669.6,145.8,686.3,145.6,686.4,134.7L686.4,134.7z M743.4,135.1
	c0.3,24.2-39.5,26.2-39.2,0.6c0-5.5,1.8-8.2,17.9-38l12.8,0.1l-11.6,20.6C733.1,115.8,743.4,123.6,743.4,135.1L743.4,135.1z
	 M732.3,134.7c-0.1-11-16.8-11-16.9,0.1C715.5,145.8,732.1,145.6,732.3,134.7L732.3,134.7z M750,136.6c0-8.9,6.6-14.1,10.3-14.8
	c-13.6-5.2-6.6-26,9-25.4c15.9-0.7,22.3,20.3,9.1,25.4c3.1,0.7,10.2,5.6,10.2,14.8C788.6,160.3,750,160.2,750,136.6z M777.3,135.8
	c-0.1-10.3-15.9-10.2-16.1,0.1C761.2,145.8,777.4,145.7,777.3,135.8z M774.9,111.9c0.2-6.7-11.2-6.8-11-0.1
	C763.8,118.3,774.8,118.7,774.9,111.9z M795.2,136.6c0-8.9,6.6-14.1,10.3-14.8c-13.6-5.2-6.6-26,9-25.4c15.9-0.7,22.3,20.3,9.1,25.4
	c3.1,0.7,10.2,5.6,10.2,14.8C833.7,160.3,795.2,160.2,795.2,136.6z M822.5,135.8c-0.1-10.3-15.9-10.2-16.1,0.1
	C806.3,145.8,822.6,145.7,822.5,135.8z M820.1,111.9c0.2-6.7-11.2-6.8-11-0.1C809,118.3,820,118.7,820.1,111.9z M413.5,118.6
	c-1.1-29.2,38.6-29.3,37.4,0C452.1,147.9,412.5,147.8,413.5,118.6z M439.7,118.6c0.5-15.1-15.4-15.1-14.9-0.1
	C424.3,133.6,440.2,133.6,439.7,118.6z M486.7,125.8c0.7,18-32.5,20.7-32.1,0.1c0-3.7,1-7.6,13.9-28.6l12.8,0.1l-9.3,15.4
	C479.5,111.9,486.7,117.7,486.7,125.8z M475.5,125.4c0.1-6.4-9.7-6.4-9.6,0.1C465.8,131.8,475.7,131.6,475.5,125.4L475.5,125.4z
	 M484.9,150.9h-71.5v2.3h71.5C484.9,153.1,484.9,150.9,484.9,150.9z"/></svg>