<svg width="535" height="104" viewBox="0 0 535 104" fill="none" xmlns="http://www.w3.org/2000/svg">
<g filter="url(#filter0_d_20_2189)">
<path d="M95.0004 32.2098C95.0004 36.6998 91.7688 41.4298 85.5055 41.4298H74.0095V11.0298H82.3138C87.7067 11.0298 91.1484 14.9898 91.1484 19.0798C91.1484 22.2998 89.0173 24.2998 88.277 24.2998C91.1985 24.2998 94.9904 27.3198 94.9904 32.1998L95.0004 32.2098ZM80.1127 16.9698V22.9098H82.584C84.0347 22.9098 85.4555 21.6598 85.4555 19.8898C85.4555 18.1198 84.1148 16.9698 82.7041 16.9698H80.1227H80.1127ZM89.0373 31.7798C89.0373 30.0298 87.8267 28.2698 84.9252 28.2698H80.1127V35.4698H84.9452C86.9262 35.4698 89.0373 34.1098 89.0373 31.7698V31.7798Z" fill="white"/>
<path d="M107.437 30.1898V11.0298H113.59V30.1698C113.59 33.4898 116.211 35.8998 119.153 35.8998C122.095 35.8998 124.756 33.4698 124.756 30.1698V11.0298H130.909V30.1898C130.909 37.0698 125.646 42.0898 119.173 42.0898C112.7 42.0898 107.437 37.0698 107.437 30.1898Z" fill="white"/>
<path d="M145.187 11.0298H151.3V41.4298H145.187V11.0298Z" fill="white"/>
<path d="M184.197 35.3598V41.4298H165.857V11.0298H171.97V35.3598H184.197Z" fill="white"/>
<path d="M221.576 26.2698C221.576 35.6998 215.573 41.4298 205.748 41.4298H196.893V11.0498L205.748 11.0298C215.583 11.0098 221.576 16.7798 221.576 26.2698ZM215.413 26.2498C215.413 20.5498 211.751 17.0798 205.728 17.0798H202.997V35.3398H205.788C211.771 35.3398 215.413 31.9098 215.413 26.2498Z" fill="white"/>
<path d="M234.803 11.0298H240.916V41.4298H234.803V11.0298Z" fill="white"/>
<path d="M279.927 10.95V41.99H279.647L261.587 24.43V41.46H255.474V10.46H255.774L273.794 27.98V10.95H279.927Z" fill="white"/>
<path d="M300.588 17.0502V23.1802H311.083V29.2702H300.588V41.4702H294.474V10.9502H312.814V17.0402H300.588V17.0502Z" fill="white"/>
<path d="M325.521 11.0298H331.634V41.4298H325.521V11.0298Z" fill="white"/>
<path d="M370.634 10.95V41.99H370.354L352.294 24.43V41.46H346.181V10.46H346.481L364.501 27.98V10.95H370.634Z" fill="white"/>
<path d="M385.182 11.0298H391.295V41.4298H385.182V11.0298Z" fill="white"/>
<path d="M425.092 17.0798H417.618V41.4298H411.485V17.0798H403.991V11.0298H425.092V17.0798Z" fill="white"/>
<path d="M444.973 28.3798L435.558 11.0298H442.461L448.014 21.5898L453.557 11.0298H460.481L451.046 28.3798V41.4298H444.973V28.3798Z" fill="white"/>
<path d="M34.5089 62.3101V93.3501H34.2287L16.1693 75.7901V92.8201H10.0562V61.8101H10.3563L28.3757 79.3301V62.3001H34.5089V62.3101Z" fill="white"/>
<path d="M47.7358 77.63C47.7358 68.9 54.8495 61.77 63.5441 61.77C72.2386 61.77 79.3723 68.9 79.3723 77.63C79.3723 86.36 72.2386 93.38 63.5241 93.38C54.8095 93.38 47.7258 86.29 47.7258 77.63H47.7358ZM73.1891 77.59C73.1891 72.27 68.8468 67.93 63.5241 67.93C58.2013 67.93 53.899 72.27 53.899 77.59C53.899 82.91 58.2213 87.19 63.5241 87.19C68.8268 87.19 73.1891 82.87 73.1891 77.59Z" fill="white"/>
<path d="M110.338 68.4401H102.865V92.7901H96.7313V68.4401H89.2374V62.3901H110.338V68.4401Z" fill="white"/>
<path d="M141.785 91.3801L144.876 86.0201C145.937 86.9101 147.088 87.3801 148.648 87.3801H148.778C152.14 87.3801 154.832 84.5301 154.832 81.2501L154.722 62.3901L160.835 62.4101L160.945 81.2901C160.945 88.1401 155.552 93.4701 148.808 93.4701H148.598C146.037 93.4701 143.746 92.7501 141.765 91.3801H141.785Z" fill="white"/>
<path d="M174.972 81.5501V62.3901H181.125V81.5301C181.125 84.8501 183.747 87.2601 186.688 87.2601C189.63 87.2601 192.291 84.8301 192.291 81.5301V62.3901H198.444V81.5501C198.444 88.4301 193.182 93.4501 186.708 93.4501C180.235 93.4501 174.972 88.4301 174.972 81.5501Z" fill="white"/>
<path d="M211.141 87.5498L216.023 84.1198C217.364 86.2698 219.305 87.2498 221.926 87.2498C224.798 87.2498 226.719 86.0798 226.719 84.4598C226.719 82.2298 223.077 80.4798 219.885 78.8998C216.474 77.1998 212.712 75.3398 212.712 70.4898C212.712 65.2298 217.164 61.7598 222.747 61.7598C226.899 61.7598 230.331 63.4798 231.712 67.1498L227.199 70.2998C226.289 68.4898 224.538 67.7498 222.837 67.7498C220.556 67.7498 218.855 69.0698 218.855 70.6398C218.855 72.4498 221.156 73.0698 224.648 74.7098C229.691 77.0898 232.852 79.6498 232.852 84.3298C232.852 89.8698 228.32 93.3998 221.816 93.3998C216.834 93.3998 213.152 91.3298 211.121 87.5498H211.141Z" fill="white"/>
<path d="M265.089 68.4401H257.615V92.7901H251.482V68.4401H243.988V62.3901H265.089V68.4401Z" fill="white"/>
<path d="M304.5 68.3998V74.5298H314.995V80.6198H304.5V92.8198H298.386V62.2998H316.726V68.3898H304.5V68.3998Z" fill="white"/>
<path d="M344.13 88.5499H331.954L330.013 92.7899H323.409L337.937 61.6299H338.127L352.675 92.7899H346.051L344.13 88.5499ZM341.749 83.3399L338.047 75.2099L334.325 83.3399H341.739H341.749Z" fill="white"/>
<path d="M389.434 62.3101V93.3501H389.154L371.094 75.7901V92.8201H364.981V61.8101H365.281L383.3 79.3301V62.3001H389.434V62.3101Z" fill="white"/>
<path d="M423.221 68.4401H415.747V92.7901H409.614V68.4401H402.12V62.3901H423.221V68.4401Z" fill="white"/>
<path d="M450.626 88.5499H438.449L436.508 92.7899H429.905L444.432 61.6299H444.622L459.17 92.7899H452.547L450.626 88.5499ZM448.244 83.3399L444.542 75.2099L440.82 83.3399H448.234H448.244Z" fill="white"/>
<path d="M468.945 87.5498L473.828 84.1198C475.169 86.2698 477.11 87.2498 479.731 87.2498C482.602 87.2498 484.523 86.0798 484.523 84.4598C484.523 82.2298 480.881 80.4798 477.69 78.8998C474.278 77.1998 470.516 75.3398 470.516 70.4898C470.516 65.2298 474.968 61.7598 480.551 61.7598C484.704 61.7598 488.135 63.4798 489.516 67.1498L485.004 70.2998C484.093 68.4898 482.342 67.7498 480.641 67.7498C478.36 67.7498 476.659 69.0698 476.659 70.6398C476.659 72.4498 478.961 73.0698 482.452 74.7098C487.495 77.0898 490.657 79.6498 490.657 84.3298C490.657 89.8698 486.124 93.3998 479.621 93.3998C474.638 93.3998 470.956 91.3298 468.925 87.5498H468.945Z" fill="white"/>
<path d="M508.936 79.7401L499.521 62.3901H506.425L511.968 72.9501L517.51 62.3901H524.434L514.999 79.7401V92.7901H508.926V79.7401H508.936Z" fill="white"/>
</g>
<defs>
<filter id="filter0_d_20_2189" x="0.0561523" y="0.459961" width="534.378" height="103.01" filterUnits="userSpaceOnUse" color-interpolation-filters="sRGB">
<feFlood flood-opacity="0" result="BackgroundImageFix"/>
<feColorMatrix in="SourceAlpha" type="matrix" values="0 0 0 0 0 0 0 0 0 0 0 0 0 0 0 0 0 0 127 0" result="hardAlpha"/>
<feOffset/>
<feGaussianBlur stdDeviation="5"/>
<feColorMatrix type="matrix" values="0 0 0 0 0.211765 0 0 0 0 0.290196 0 0 0 0 0.529412 0 0 0 0.4 0"/>
<feBlend mode="normal" in2="BackgroundImageFix" result="effect1_dropShadow_20_2189"/>
<feBlend mode="normal" in="SourceGraphic" in2="effect1_dropShadow_20_2189" result="shape"/>
</filter>
</defs>
</svg>
