<svg width="514" height="56" viewBox="0 0 514 56" fill="none" xmlns="http://www.w3.org/2000/svg">
<path d="M13.732 14.736H47.488V19.144H13.732V14.736ZM13.094 7.428H49.982V12.532H13.094V7.428ZM13.848 21.464H47.546V25.93H13.848V21.464ZM34.554 35.674H47.256V41.358H34.554V35.674ZM27.768 10.27H34.438V30.57H27.768V10.27ZM14.254 0.583997L20.634 2.73C16.98 9.632 11.18 16.592 5.844 20.884C4.742 19.608 2.248 17.172 0.798 16.012C6.076 12.416 11.238 6.5 14.254 0.583997ZM43.718 35.674H50.504V48.724C50.504 51.624 50.04 53.19 48.126 54.118C46.27 55.046 43.718 55.104 40.412 55.104C40.18 53.306 39.426 50.986 38.672 49.362C40.47 49.42 42.326 49.42 42.906 49.42C43.544 49.362 43.718 49.188 43.718 48.666V35.674ZM18.43 35.674H24.694V43.91H31.074V35.674H37.686V49.362H18.43V35.674ZM5.67 35.674H21.794V41.358H12.456V55.278H5.67V35.674ZM25.506 1.976L32.234 0.525997C33.568 2.788 34.902 5.862 35.366 7.892L28.232 9.516C27.826 7.544 26.666 4.354 25.506 1.976ZM8.628 10.56H15.356V34.978H8.628V10.56ZM13.5 28.424H51.548V33.47H13.5V28.424ZM62.8 24.016H78.286V30.628H62.8V24.016ZM70.862 12.532H89.596V19.202H70.862V12.532ZM92.264 15.084C95.86 29.12 103.516 40.662 116.566 45.65C115 47.042 112.738 49.942 111.694 51.856C97.948 45.592 90.64 33.006 86.406 16.36L92.264 15.084ZM108.156 17.114L114.594 21.812C109.606 26.22 103.632 31.092 98.992 34.108L94.062 30.048C98.644 26.8 104.618 21.406 108.156 17.114ZM85.42 12.532H92.96V47.158C92.96 50.87 92.148 52.784 89.712 53.944C87.218 55.046 83.738 55.162 78.808 55.162C78.518 53.132 77.474 50.058 76.43 48.144C79.388 48.318 83.042 48.318 84.028 48.318C85.072 48.26 85.42 47.97 85.42 47.042V12.532ZM75.386 6.616L78.866 0.931999C85.652 2.382 95.338 5.514 100.326 8.066L96.614 14.562C91.916 11.894 82.462 8.414 75.386 6.616ZM75.676 24.016H77.068L78.286 23.784L82.984 25.756C80.2 37.878 74.11 46.926 66.976 51.74C65.874 50.232 63.032 47.564 61.35 46.462C68.252 42.402 73.646 34.688 75.676 25.35V24.016ZM123.7 1.628H152.062V6.5H123.7V1.628ZM131.24 8.53H145.566V12.416H131.24V8.53ZM131.24 14.388H145.566V18.274H131.24V14.388ZM153.048 3.078H170.622V8.646H153.048V3.078ZM142.492 3.542H148.698V26.742H142.492V3.542ZM168.65 3.078H169.81L170.912 2.846L175.262 4.876C171.376 15.316 162.734 22.334 153.28 26.162C152.41 24.712 150.67 22.508 149.394 21.29C157.688 18.448 165.75 11.894 168.65 4.122V3.078ZM122.54 21.348C128.514 21 137.446 20.304 146.03 19.608V24.248C137.968 25.06 129.558 25.756 123.294 26.336L122.54 21.348ZM151.192 13.286L155.658 9.168C162.212 12.59 171.492 17.926 176.132 21.638L171.318 26.394C167.026 22.682 157.978 16.998 151.192 13.286ZM165.866 25.35L171.144 29.99C160.24 32.426 143.13 33.876 130.428 34.34C129.5 32.832 127.76 29.584 126.484 28.192C139.824 28.25 156.354 27.148 165.866 25.35ZM128.166 3.542H134.372V23.146L128.166 23.784V3.542ZM146.146 32.658L149.684 29.12L153.164 30.28V55.162H146.146V32.658ZM132.168 41.822L136.17 38.516C138.954 41.3 142.666 45.186 144.348 47.738L140.114 51.566C138.49 48.956 134.952 44.78 132.168 41.822ZM133.792 34.804L138.954 36.312C136.576 43.678 132.11 49.71 126.194 53.306C125.788 51.798 124.628 48.318 123.758 46.81C128.282 44.316 132.052 40.198 133.792 34.804ZM163.836 32.484L169.056 33.876C166.736 41.938 162.56 48.608 156.702 52.668C156.296 51.102 155.02 47.68 154.266 46.172C158.732 43.272 162.212 38.516 163.836 32.484ZM167.316 36.834C169.114 40.778 172.71 44.954 176.48 47.1C175.088 48.202 173.174 50.348 172.188 51.856C168.186 49.014 164.532 43.62 162.502 38.4L167.316 36.834ZM201.246 24.132H237.96V29.99H201.246V24.132ZM207.568 32.774H231.406V38.226H207.568V32.774ZM209.772 26.278L215.746 27.786C212.788 34.514 207.568 40.314 202.058 43.91C201.072 42.75 198.752 40.662 197.418 39.734C202.754 36.718 207.394 31.904 209.772 26.278ZM230.304 32.774H236.8C236.8 32.774 236.742 34.34 236.626 35.152C235.814 46.52 234.886 51.218 233.32 52.958C232.218 54.234 230.942 54.698 229.434 54.872C228.1 55.046 225.896 55.104 223.518 55.046C223.46 53.364 222.88 50.986 222.01 49.536C223.808 49.71 225.374 49.768 226.128 49.768C226.94 49.768 227.404 49.652 227.868 49.072C228.796 48.028 229.666 44.026 230.304 33.702V32.774ZM212.498 14.33V17.114H227.52V14.33H212.498ZM212.498 7.022V9.806H227.52V7.022H212.498ZM206.35 2.208H233.958V21.928H206.35V2.208ZM184.252 12.938H202V19.55H184.252V12.938ZM190.11 1.454H196.606V37.53H190.11V1.454ZM182.976 38.748C187.442 37.066 194.518 34.108 201.246 31.208L202.696 37.182C196.896 40.198 190.632 43.33 185.528 45.766L182.976 38.748ZM223.692 33.876L228.39 36.428C226.186 43.388 221.314 51.45 216.152 55.452C214.934 54.118 212.904 52.552 211.164 51.566C216.79 48.086 221.546 40.604 223.692 33.876ZM214.876 33.934L219.458 36.66C216.558 42.634 210.468 49.362 204.958 52.9C203.856 51.45 202 49.768 200.376 48.782C206.118 45.882 212.092 39.618 214.876 33.934ZM278.567 18.332H328.853V24.074H278.567V18.332ZM277.987 48.202H329.433V54.002H277.987V48.202ZM300.085 0.757998H306.929V13.75H300.085V0.757998ZM281.467 2.324H288.253V9.806H319.457V2.324H326.649V15.49H281.467V2.324ZM290.979 32.136V36.66H316.383V32.136H290.979ZM284.077 27.09H323.691V41.648H284.077V27.09ZM289.819 42.402L296.199 40.952C297.359 42.982 298.461 45.766 298.925 47.564L292.313 49.362C291.965 47.506 290.863 44.548 289.819 42.402ZM310.757 40.894L318.007 42.228C316.731 44.838 315.571 47.216 314.585 48.898L308.321 47.68C309.191 45.708 310.235 42.924 310.757 40.894ZM366.611 18.97H388.013V25.93H366.611V18.97ZM337.901 45.36H391.145V52.262H337.901V45.36ZM363.189 0.757998H370.613V49.014H363.189V0.757998ZM345.325 12.764H352.575V48.724H345.325V12.764ZM399.091 23.088H451.987V29.352H399.091V23.088ZM402.049 5.688H448.855V11.72H402.049V5.688ZM437.545 26.278H444.737V47.854C444.737 51.334 443.867 53.19 441.257 54.234C438.589 55.162 434.877 55.278 429.831 55.278C429.425 53.364 428.323 50.522 427.337 48.782C430.701 48.956 434.993 48.898 436.037 48.898C437.139 48.84 437.545 48.608 437.545 47.738V26.278ZM404.485 32.832H411.097V52.61H404.485V32.832ZM409.879 32.832H429.599V49.014H409.879V43.62H422.987V38.226H409.879V32.832ZM421.885 0.641999H429.077C428.207 14.272 425.423 21 404.427 23.668C403.963 22.044 402.455 19.492 401.353 18.216C419.681 16.244 421.247 11.662 421.885 0.641999ZM420.609 15.026L425.829 10.676C433.195 12.88 442.533 16.418 448.217 18.796L443.113 23.668C437.661 21.116 428.091 17.346 420.609 15.026ZM472.519 38.052H479.363V45.94C479.363 47.68 479.943 47.854 483.133 47.854C484.583 47.854 490.499 47.854 492.413 47.854C495.139 47.854 495.545 47.042 495.835 41.184C497.343 42.286 500.243 43.272 502.099 43.678C501.287 51.972 499.373 54.06 492.935 54.06C491.253 54.06 484.003 54.06 482.437 54.06C474.491 54.06 472.519 52.146 472.519 46.056V38.052ZM480.871 37.298L485.627 33.47C488.237 35.79 491.833 39.096 493.631 41.184L488.585 45.476C486.961 43.33 483.481 39.792 480.871 37.298ZM500.475 38.922L506.565 36.08C508.943 39.676 512.307 44.664 513.873 47.68L507.377 50.986C505.985 47.912 502.795 42.75 500.475 38.922ZM464.167 36.892L470.373 39.27C469.271 43.446 467.531 48.666 465.443 52.03L459.121 48.898C461.267 45.766 463.181 41.01 464.167 36.892ZM460.107 9.052H484.525V14.91H460.107V9.052ZM469.735 0.815997H476.347V35.732H469.735V0.815997ZM469.503 12.938L474.259 14.446C471.881 21.464 467.647 28.714 463.181 32.774C462.137 31.266 460.107 29.004 458.715 27.902C463.065 24.712 467.299 18.622 469.503 12.938ZM475.941 16.824C477.913 17.926 484.003 22.276 485.569 23.436L481.915 29.004C479.653 26.626 474.781 22.16 472.345 20.246L475.941 16.824ZM493.109 17.636V21.058H503.839V17.636H493.109ZM493.109 26.104V29.584H503.839V26.104H493.109ZM493.109 9.168V12.474H503.839V9.168H493.109ZM486.787 3.658H510.509V35.036H486.787V3.658Z" fill="white"/>
</svg>
