<?xml version="1.0" encoding="UTF-8"?>
<svg id="_圖層_1" data-name="圖層_1" xmlns="http://www.w3.org/2000/svg" version="1.1" viewBox="0 0 834 246">
  <!-- Generator: Adobe Illustrator 29.3.1, SVG Export Plug-In . SVG Version: 2.1.0 Build 151)  -->
  <defs>
    <style>
      .st0 {
        fill: #231815;
      }

      .st1 {
        fill: #814495;
      }

      .st2 {
        fill: #d82570;
      }

      .st3 {
        fill: #ec8c3b;
      }

      .st4 {
        fill: #003296;
      }

      .st5 {
        fill: #18a691;
      }

      .st6 {
        fill: #e61f19;
      }

      .st7 {
        fill: #1b96cd;
      }

      .st8 {
        fill: #74b22c;
      }

      .st9 {
        fill: #004680;
      }

      .st10 {
        fill: none;
        opacity: .5;
        stroke: #231815;
        stroke-miterlimit: 10;
        stroke-width: 1.2px;
      }

      .st11 {
        fill: #57297b;
      }
    </style>
  </defs>
  <path class="st6" d="M300.5,220.6v1.2h1.8v22.7h-2.1v-20.7h-21.3v20.7h-2.2v-22.7h1.8v-1.2h-1.8v-.9c-.7-.1-1.5-.6-2-1.3,0-.4.4.1,2,.2,1.1.1,3-.6,4.1-.9.5-.1.3-.7.3-1.1,0,0-.4-.8-.2-.7,1.8,1.1,2.7-1.6,2.4-3,2.4,3.4,10.1.6,11.7-2.3l.5,2.5c1.1,1.2,2.7,4.9,4.7,4.6.9,0,1.8-.2,2.6-.5.1.1-.3.5-.4.6v2.9h-1.9ZM276.6,220.6h0ZM298,234.3v-6.1h1v-1.9h-15.5v13.7h2v-11.6h10.5v4.2h-15.9v12.1h2v-10.2l15.9-.2h0ZM290.7,224.7h-2v15.3h8.2v2.5h-13.4v2h15.5v-6.5h-8.2v-13.3ZM464.6,213.3v28.5l.5.9h-9.9c.9-.2.4-10.8.5-11.4h0c0-8.5-12.8-8.2-12.8,0,.1.6-.4,11.2.5,11.4h-9.9l.5-1v-28.4l-.5-.9h31.5l-.4.9Z"/>
  <path class="st0" d="M537.5,234.9c-1.2-.7,0-3.1,0-4.3h-.2c-1.8,5.6-2.4,4.1-7.6,4.2-1.5,0-1.5-.3-1.5-1.3v-7.2l1.5-.8v7.7c0,.6.3.7.6.7,2.9,0,1.8-2.3,2-4.2.5.2,1.6.6,1.7,1.8,3.4,2.2,2.6-5.3,2.8-7.9,1.8-1-.4-1.7-1.2-2.3-.9-.7-1.5.6-1.8,1.3l-1.6.8v-3.8c2.3-1.4-2.1-1.1-2.6-1.3v6.6l-1.5.8v-4.3c2.2-1.3-2.2-1.1-2.7-1.3v4.2c-1.6-1.4-1.4-.8-2.4.6v-4.6c2.9-.9-2.1-1.1-2.6-1.3v6h-2.5l.3.5h2.2v6.7c-1.2.2-1.4.2-2.7.4.3.3.6,4.6,1.6,2.6,1.6-.8,3.4-1.8,6.1-3.3-1.2,7.7,4.6,5.1,9.4,5.5,1,0,4.3-.9,2.7-2.5ZM532.4,224.2l1.7-.9v5.1c0,1-.2,1-1.7,1v-5.2ZM525.7,227.4l-2.3,1.2.5.3,1.8-1v3.1c-.4.1-2.3.5-2.4.5v-6.2h2.4v2.1h0ZM321.3,234.5h-2.7v-1.6h1.1v-8.8h-1.7c-.1,3,.4,8.1-.4,10.9h-3.1c1-3,.3-12.9.5-16.3h7.9c0-.8-.1-1.8-.1-2.6h2.8c0,.9.1,1.8.2,2.6h2.9v1.6h-2.8c.1,1.6.2,3.1.4,4.7.2-.9.5-1.8.6-2.9h1.8c-.3,2.5-.9,4.8-1.7,7.1.4,1.8.9,3.8,1.7,5.7h-2.7c-.2-.5-.5-.9-.6-1.4l-.6,1.5h-2.1c.6-1.4,1.3-2.9,1.8-4.3-.7-3.1-1.2-6.8-1.4-10.3h-5.1v2.2c1.2.2,4.6-.6,4.6,1.3-.4,1.1,1.2,11.2-1.3,10.6ZM313.1,231.9l1.3-.2v1.6l-5.6.6v-1.6h1.2v-15.3h3.1M308.8,221.8v-1.6h5.6v1.6M386,222.7h-6.2v-1.6h6.2v1.6ZM379,234.6c8.5-.4,8.1,2.2,7.9-7.2h-7.9v7.2ZM382.2,229h1.7v4.1h-1.7v-4.1ZM379.9,224.2h6.2v1.6h-6.2v-1.6ZM323.3,241.3c-1,1.8,1.8,3.5,2.6,1.5h.8c-.6,2.6-4.6,1.9-4.4-.7-.2-2.7,3.8-3.2,4.4-.7h-.8c-.4-1.2-2.2-1.2-2.6-.1ZM326.4,218.3l-.2-1.7h2.1l.2,1.7h-2.1ZM387.2,219.5h-8.3v-1.6h2.7v-1.8h3.1v1.8h2.5v1.6h0ZM387.1,224.4c1.7-2,1.4-5.5,1.4-8h9v6.1c0,.6,1,.3,1.4.4v1.6c-1-.2-4.5.7-4.4-1.1v-5.4h-2.8c0,2.2.1,4.7-1.3,6.5h-3.3ZM335.8,222.2h-3.2v-4h8.2v-2h3.1v2h8.3v4h-3.2v-2.4h-13.2v2.4ZM357.5,228.5h-2.4s.7,1.3,2.1,2.8c-.5,1.3-.8,2.5-1.3,3.8h3.4c.2-.5.4-1,.6-1.5,2.7,2.5,12.2,1.2,15.4,1.5v-1.6h-4.8v-2h4.9v-1.6h-4.9v-1.6h4.4v-1.6h-4.4v-1.6h4.3v-3h.6v-1.6h-.6v-3h-4.3v-1.3h-3.1v1.4h-3.6v1.6h3.6v1.5h-4.6v1.6h4.6v1.5h-3.6v1.6h3.6v1.6h-4.2v1.6h4.2v1.6h-4.6v1.6h4.6v1.9c-2.4.1-5.1-.1-6.8-1.7.6-1.8,1.5-4.7,1.9-6.7h-2.8c.8-2.3,1.9-5.7,2.6-8.1h-6.7v1.6h2.9c-.6,2.5-1.7,5.5-2.5,7.8h2.8c-.3.9-.5,1.8-.7,2.8l-.6-.9ZM370.4,219.2h1.5v1.5h-1.5v-1.5ZM370.4,222.2h1.5v1.5h-1.5v-1.5ZM558.5,236.1c.3.2.3.6,0,.6h-15.5l-.3-.5h6.8v-3.4h-3.3l-.3-.5h3.6v-2.8h-1.8c-.5.8-1.8,3-3.8,4.3h0c1.3-1.9,1.8-5.7,1.9-7.3.5.3,5.2.8,2.6,1.6-.2.5-.3.6-.5.9h1.7v-2.8c.6.1,5.3,0,2.8,1.2v1.6h2.4c1.7-2.6,1.6-1.5,3.6,0,1.5,1.2-5.8.4-5.9.6v2.8h1.8c1.6-2.5,1.6-1.7,3.5,0,1.5,1.2-5.3.4-5.4.6v3.4h2.6c1.7-2.8,1.6-1.6,3.7-.1ZM559.4,225.4c0,.2-.2.2-.3.2h-15.3c.2,4.5,0,8.9-3.9,11.6l-.2-.2c1.8-2.5,1.3-9.3,1.3-13.5l3.3,1.7h8.3c-3.2-2.4-4.4-.5-9.4-.7v-.2c1-.2,2.6-.5,4.6-1.2-1.3-.4-1.7-.5-3.9-.9v-.2c1.8-.1,3.2-.1,5.8.2,1-.5,1.6-.8,1.8-1h-11.4l-.3-.5h7.9v-2.5c.6.2,5.4-.1,2.8,1.1v1.4h3.7c1.8-2.7,1.7-1.7,3.8,0,1.4,1.2-4.6.4-4.7.6,2.6,1.5,0,.9-1,1.7.8.2,2.7,1.4,1.6,2.3h1.5c.5-.4,1.4-2.4,1.8-1.6.5.2,2.2,1.5,2.2,1.8ZM347,239.8h.9l-1.8,4.6h-.7l-1.8-4.6h.9l1.4,3.5,1.1-3.5ZM381.9,239.8h3.8v.7h-1.5v3.9h-.8v-3.9h-1.5v-.7ZM380.2,239.8h.8v4.6h-.8l-2.4-3.3v3.3h-.8v-4.6h.8l2.4,3.3v-3.3h0ZM370.5,239.8h.8v4.6h-.8v-3.2l-1.4,1.8-1.5-1.8v3.2h-.8v-4.6h.8l1.5,1.9,1.4-1.9ZM372.6,239.8h3.5v.8h-2.7v1.1h2.4v.8h-2.4v1.1h2.7v.8h-3.5v-4.6ZM394.6,231.1c1.3,1.2,2.8,2.5,4.5,3.9h-4.1c-.8-.6-1.6-1.3-2.3-1.9-.6.7-1.4,1.4-2.1,1.9h-4.1c1.7-1.4,3.1-2.7,4.3-4-1-1.2-2-2.5-3-3.7h3.4c.5.6.9,1.2,1.4,1.8.6-.7,1.3-1.6,1.8-2.4h-7.4v-1.6h11.2c1.8.4-3.2,5.3-3.6,6h0ZM494.8,227.1c0-.6-.6-2.4-2.4-3,.5-.5,1.3-1.3,1.4-1.3,2.5-.2-1.6-1.4-1.8-1.7-.2.6-.4.8-.6,1.5-.3-.5-.6-.9-1-1.2.8-.5,1.4-.8,2.3-1.5,2.3-.1-2-1.5-2.2-1.7-.2,1-.6,2-1,2.7-.6-.2-1.1-.4-1.8-.4v.2c2,1.2.6,3.1,2.7,3.7-.6.8-.9,1.4-1.1,1.6h-.6c-.4-.6-1.2-1.4-2-1.8.6-.5.9-.8,1.6-1.3,2.5-.1-1.6-1.4-1.8-1.7-.1.2-.5,1-.6,1.1-.1-.3-.3-.5-.7-.8.3-.2,1.1-.7,2.2-1.7,2.5-.1-2-1.5-2.3-1.7-.3,1.7-.6,2.2-.8,2.8-.6-.3-1-.5-1.6-.6.1-.2.1-.3.1-.6,2.8.2.3-1.3-.6-1.8-.4,0-.9,1-1.1,1.3h-6.1l.3.5h1v11.3c-.2,0-1,.2-1.2.2.2.3,1,4.8,1.6,2.5,2.8-1.9,3-2.2,3.4-2.5v5.7c-.2,1.1,2.1.8,2.2-.2v-10.2c.3.4.8,2.9,1.4,1.4.6-.3,2.1-1,3-1.5-.4,1.8,1.8,1.9,2.1.6.1.3.4,1.1.6,1.2h-.6c.3.2-.7,10,.6,9.4.5-.1,1.7-.2,1.7-.9v-3.9h.9c-.5,1.8,1.9,1.5,2,.2,0,0,0-3.2,0-3.2,1.8-1.1-1.7-.9-2-1v3.5h-.9v-3c1.8-.8-.6-.9-1.2-1q.1-.2.2-.5c.6-.3,2.5-1.4,2.8-1.6-.1.7-.1,1.6,1,1.7.3.3.9,0,.9-.8ZM479.9,227.7v3c-.3,0-1.4.2-1.6.2v-3.3h1.6ZM479.9,227.1h-1.6v-3.2h1.6v3.2ZM479.9,223.3h-1.6v-2.5c.4,0,.7-.3.6-.6h1v3.1h0ZM482.1,226.2v-5.3c2.1,1.1.6,3.4,2.6,3.7-.4,1-1.3,1.9-2.6,1.6ZM485.6,226.1c-.6,0-.6.1-.9.1.2-.2.6-.5,1.4-1.2.3.6.5.9.5,1.2-.3-.1-.4-.2-1-.1ZM490.1,226c.6-.5,1.6-1.2,1.8-1.5.2.2.6.7.7,1.3-.4,0-2.1.2-2.5.2ZM516.4,236.5c0,.6-.6,1.2-1.3,1.2-1.7-.5-2.7-4.1-4.5-3.9v-.3c2.4-.4,5.9.8,5.8,3ZM488.7,228.9c0,.2-.2.3-.6.5,0,4.8,0,7-5.8,8.5v-.2c2.4-1.2,3.5-3.4,3.5-4.6h-.7c0,.4.1.8-.4,1s-1.8.6-1.8-.2v-4.9c.4.1,4.1.1,2.2,1v2.6h.7v-4.1c.4.1,2.8-.1,2.9.4ZM328.9,239.8l-1.9,4.6h.9l.6-1.2h1.9l.6,1.2h.9l-1.9-4.6h-1.1ZM328.8,242.4h0l.6-1.5.6,1.5h-1.2ZM339.4,239.8h3.5v.8h-2.7v1.1h2.4v.8h-2.4v1.1h2.7v.8h-3.5v-4.6ZM337.8,240.3c-.7-.9-2.5-.6-3.5-.6v4.6c2.6.5,5.5-1.2,3.5-4ZM337.4,242.8c-.4.9-1.6.7-2.3.7v-3c1.6-.3,3.1.6,2.3,2.3ZM364.2,239.8h-2.1v4.6h.8v-1.6c2.6.8,4.6-2.7,1.3-3ZM365.2,241.3c.1,1.1-1.5.7-2.1.7v-1.6c.6.2,2.1-.2,2.1.9ZM348.5,239.8h3.5v.8h-2.7v1.1h2.4v.8h-2.4v1.1h2.7v.8h-3.5v-4.6ZM514.8,218.4c-.6-.7-1.3,1.1-1.7,1.4h-7.8c-1.4-1.2-1.8-1.9-3,0h-5.5l.3.5h1.7c0,4.1-.8,7.9-2.6,11.2l.2.2c.9-.7,1.6-1.7,1.8-2v6.7c0,.4.1.6.6.6,1.9,0,1.7-1.1,1.7-2.7h1.4c0,1.5-.2,2.1,1.7,1.4.6-.3.6-.6.6-.8v-7.2c1.7-.9,0-1.6-.7-2.3-.6-.6-1.2.6-1.6,1.1h-1.3l-.3-.2c.6-1.3,1.2-2.9,1.6-5.2.4,0,.9-.2.7-.6h6.4c-.2,1.9-.2,2.1-.4,2.7-.1,0-2.5-.9-2.6-.9.3.4-.8,12.6.7,11.9-1.6,2.2-3.5,3.2-4.2,3.6v.2c1.8-.2,4.6-1,7.1-2.9,2.2-.1-.9-1.3-1.4-1.5.2-.1.2-.3.2-.5h4.3c-.2.8,2.4,1.1,2.6-.5v-8.2c1.7-.9-.6-2.1-1.4-2.6-.4,0-1,.9-1.3,1.2h-2.8c.7-.6,1.3-1.2,1.8-1.9.8-.3.9-.3.8-.7,1.7-.4,6.6.9,2.4-2ZM500.6,226.8h1.4v7h-1.4v-7ZM512.7,232.6h-4.3v-2.8h4.3v2.8h0ZM512.7,229.2h-4.3v-2.7h4.3v2.7h0ZM512.7,223.5v2.6h-4.3v-2.6h4.3ZM360.5,240.4h0c-2.1-2.2-5.5,1.1-3.4,3.3,2.2,2.3,5.6-1.1,3.4-3.3ZM360.2,242.8c-1,1.8-3.7.2-2.7-1.6,1-1.7,3.7,0,2.7,1.6ZM353.8,243.6h2.3v.8h-3.1v-4.6h.8v3.8ZM348.7,225.5h3.5v-1.6h-10.9c.6-1,1.1-2.2,1.6-3.7h-2.9c-.1.2-.4,1.4-1.9,3.7h-5.5v1.6h4.4c-.8,1-1.8,2.1-3,3.2l.4,1.4c2.5.2,4.8.6,6.8,1-2.8,1.5-4.6,1.6-8.6,1.6v2.3c4.7,0,8.8-.5,11.8-3,5,1.5,7.9,3.1,7.9,3.1v-2.3c-1.9-1.1-4.2-1.9-6.1-2.6,1.1-1.4,2-3,2.5-4.7ZM343.5,229.5c-3-.7-5.3-1-5.8-1.1l.4-.2c.6-.5,1.4-1.4,2.3-2.8h5.6c-.6,1.7-1.4,3-2.5,4.1Z"/>
  <path d="M530.1,73.6v3.6h-17.2v-.8c9.5-7.7,13.3-11.6,13.3-14.4-.1-6.3-9.3-5.5-9.1.4l-3.3-.8c4-18.2,29.1-.9,6.8,12h9.6ZM550,69.7c.2,9.8-16.4,10.4-16.2.2,0-2.7,1.1-3.8,7.7-15.7h4.1s-5,8.7-5,8.7c4.3-1.6,9.4,1.6,9.4,6.8ZM546.4,69.6c0-5.7-9.1-5.6-9,0,0,5.5,9,5.5,9,0ZM553.7,64.4h11.3v3.2h-11.3v-3.2ZM584.2,70.3c.2,8.4-13.9,9.4-15.6,1.4l3.5-.9c5.5,9.4,14.7-5.3,1.6-5.3l.6-2.1c9.7,0,2.8-11.4-1-4l-3.7-.8c3-11.3,20.5-1.4,10.3,5.7,2.4.9,4.2,2.8,4.2,6ZM587.9,70.3c0-3.5,2.7-5.8,4.6-6.1-6-1.8-3.4-10.8,3.2-10.4,6.7-.4,9.1,8.7,3.2,10.4,7.2,1.8,5.3,13.7-3.3,13.4-4.6,0-7.8-3.4-7.8-7.3ZM599.9,70.1c0-5.1-8.5-5-8.4,0-.1,5,8.6,5,8.4,0ZM598.9,59.9c.1-3.6-6.4-3.6-6.3,0,0,3.5,6.3,3.6,6.3,0ZM633.8,70.2h-7.4v9.5h-3.5v-9.5h-7.3l.4,2.2c-2.9,1.2-6,2.4-8.5,3.3l-1.2-3.6c1-.3,2.1-.6,3.4-1v-8.8h-2.8v-3.3h2.8v-6.3h3.2v6.3h2.5v3.3h-2.5v7.7l2.6-.9v.7c.1,0,.1-3.1.1-3.1h7.3v-9.8h-6.5v-3.3h16.7v3.3h-6.6v9.8h7.4v3.3ZM619.8,58.3c.7,2.2,1.3,4.9,1.5,6.7l-2.9.8c-.1-1.8-.7-4.7-1.4-6.8l2.8-.7ZM627.9,65c.6-1.8,1.3-4.8,1.6-6.9l3.2.6c-.7,2.5-1.5,5.2-2.2,7l-2.7-.7ZM657.4,51.5v29.2h-1.3v-29.2h1.3ZM697,73.6v3.6h-17.2v-.8c9.5-7.7,13.3-11.6,13.3-14.4-.1-6.3-9.3-5.5-9.1.4l-3.3-.8c4-18.2,29.1-.9,6.8,12h9.6ZM700,64.4h11.3v3.2h-11.3v-3.2ZM730,70.3c.2,8.4-13.9,9.4-15.6,1.4l3.5-.9c5.5,9.4,14.7-5.3,1.6-5.3l.6-2.1c9.7,0,2.8-11.4-1-4l-3.7-.8c3-11.3,20.5-1.4,10.3,5.7,2.4.9,4.2,2.8,4.2,6ZM747.8,69.9c0,.6-.2,1.1-.3,1.5h9.5c-.1,6.9-1.4,9-7.7,8.2,0-.9-.4-2.1-.9-2.9,3.1.1,4.7,1.2,5-2.7h-6.7c-1.2,2.5-3.3,4.4-7.5,5.7-.3-.8-1.2-2-1.8-2.7-.6,1.1-1.2,2.1-2,3-.5-.7-1.8-2.1-2.5-2.5,4.9-6.3,3-15.6,3.4-22.8,6.7-.4,14.3-1.1,18.8-2.2l2.7,2.6c-5,1.1-11.8,1.8-18,2.2v.9h18.3v7h-8.1c.3.6.7,1.3.9,2h8.9v2.7h-12ZM739.4,69.9c-.4,2.4-1,4.9-2,7.1,5.2-1.4,6.5-3.8,7-7.1h-5ZM747.1,67.2c-.2-.5-.4-1.1-.6-1.5l2.8-.5h-9.6c0,.6,0,1.3,0,2h7.5ZM739.7,60.8v1.7h14.9v-1.7h-14.9ZM496.3,76.8h-59.3v-22.8h59.3v-.7h-60v24.2h60v-.7ZM834,53.3h-60v.7h59.3v22.8h-59.3v.7h60v-24.2Z"/>
  <path class="st4" d="M122,63.2V3.6h-48.2v59.7h48.2ZM113.1,53.9h-30.2v-16h30.2s0,16,0,16ZM113.1,28.6h-30.2v-15.7h30.2s0,15.7,0,15.7ZM62.1,65V1.8H30.1v63.2h9v-18h14.1v8.5h-8.8l1.3,9.4h16.4ZM53.1,37.7h-14.1v-8.6h14.1v8.6ZM53.1,19.8h-14.1v-8.6h14.1v8.6ZM0,11.1v44.5h24.4V11.1H0ZM15.4,46.2h-6.4v-8.1h6.4v8.1ZM15.4,28.8h-6.4v-8.3h6.4v8.3ZM218.5,55.4h4.8v9.4h-18.5v-9.4h4.8V1.2h9M204.8,19.7v-9.4h18.5v9.4M315.7,38.1l-17.4,17.5h-21.2v9.4h24.4l26.7-26.9h11.1v-9.4h-62.2v9.4h38.6ZM312.7,19.7h17.6v6.3h9v-15.7h-26.6V1.3h-9v9.1h-26.6v15.6h9v-6.3h14.2l-13.3,17,28.8,28.3h23.5v-9.4h-20.6l-19.2-18.9,13.2-17ZM266.9,19.7v-9.4h-40.9v54.5h9v-26.8h3v26.7h9l5.4-10.2,1.5,10.2h13.3v-9.4h-5.7l-2-13.9,6.9-12.8h-8.8l-4-27.4h-9l5.8,40.3-4.6,8.6v-21.5h-10.9v-9h32ZM150.5,24.5h-3.9l-3.9-6.8h11.6l-3.8,6.8ZM152.7,33.9h29.2v30.9h9v-30.9h4.1v-9.4h-35.4l3.9-6.8h4.8v47.1h9V15.7l17.7-4V2.3l-26.7,5.9h-15.5V1.2h-9v7.1h-10.4v9.4h.1l4,6.8h-4v9.4h10.3v30.9h9M148.2,48.3l8.5,16.5h8.4l-17.1-32.7-17.1,32.6h8.7l8.6-16.4ZM163.7,47.5v-9.4h-30.4v9.4M257.7,7.8L257.3,0h9.6v7.8h-9.2ZM95.6,84.8h6.2v1.4h-2.3v6.5h-1.7v-6.5h-2.3v-1.4h.1ZM111,84.8h1.7v7.9h-1.7v-3.3h-2.9v3.3h-1.7v-7.9h1.7v3.2h2.9v-3.2ZM117.9,84.8h5.7v1.4h-4v1.8h3.4v1.4h-3.4v1.9h4v1.4h-5.7v-7.9ZM139.5,88.7c1.7-.7,1.5-3.9-1.6-3.9h-3.5v7.9h3.6c3.3,0,3.2-3.5,1.5-4ZM136.1,86.2c3.6-.5,3.7,2.3,0,1.8v-1.8ZM137.9,91.4h-1.8v-1.9h1.8c1.5,0,1.5,1.9,0,1.9ZM145.6,84.8h5.7v1.4h-4v1.8h3.4v1.4h-3.4v1.9h4v1.4h-5.7v-7.9ZM159.4,86.2v6.5h-1.7v-6.5h-2.3v-1.4h6.2v1.4h-2.2ZM165.6,84.8h6.2v1.4h-2.3v6.5h-1.7v-6.5h-2.3v-1.4h.1ZM176.3,84.8h5.7v1.4h-4v1.8h3.4v1.4h-3.4v1.9h4v1.4h-5.7v-7.9ZM193.4,92.7h0ZM190.3,84.8h-3.4v7.9h1.7v-3.1h1.2l1.7,3.1h1.9l-1.9-3.4c2.4-.8,2-4.5-1.2-4.5ZM190.2,88.3h-1.6v-2.1h1.6c1.6,0,1.5,2.1,0,2.1ZM209.7,84.8v1.4h-4v1.9h3.4v1.4h-3.4v3.2h-1.7v-7.9h5.7ZM209.7,86.2h0ZM220.6,90c0,3.7-6.4,3.7-6.4,0v-5.2h1.7v5.1c0,2,3,1.9,3,0v-5.1h1.7v5.2ZM253.6,92.7h0ZM250.4,84.8h-3.4v7.9h1.7v-3.1h1.2l1.7,3.1h1.9l-1.9-3.4c2.4-.8,2.1-4.5-1.2-4.5ZM250.3,88.3h-1.6v-2.1h1.6c1.7,0,1.6,2.1,0,2.1ZM242,90c0,3.7-6.4,3.7-6.4,0v-5.2h1.7v5.1c0,2,3,1.9,3,0v-5.1h1.7v5.2ZM225,84.8h6.2v1.4h-2.3v6.5h-1.7v-6.5h-2.2v-1.4ZM258.1,84.8h5.7v1.4h-4v1.8h3.4v1.4h-3.4v1.9h4v1.4h-5.7v-7.9ZM83.3,82.9v10l-1.3-1.3v-6.4h-1.7v6.4l-1.3,1.3v-10h4.3ZM82.2,83.9h-2.2l-4.3-4.1v16.1h10.7v-16l-4.2,4ZM78,82v11.9l-1.3,1.3v-14.4h8.8v14.4l-1.3-1.3v-11.9h-6.2ZM552.3,137.4c0,20.4-31,22.1-35.9,3.7l10.4-2.7c.8,3.1,3.8,5.2,7.5,5.2,13.3-1.9,7-17.5-6.5-16.6l1.6-6.1c18-1,5.7-19.5.3-7.9l-10.9-2.3c6.6-24.8,46-4.8,24.9,12.9,4.5,2.1,8.6,6.8,8.6,13.6ZM594.4,137.4c0,20.4-31,22.1-35.9,3.7l10.4-2.7c.8,3.1,3.8,5.2,7.5,5.2,13.3-1.9,7-17.5-6.5-16.6l1.6-6.1c18-1,5.7-19.5.3-7.9l-10.9-2.3c6.4-24.8,46.1-4.8,25,12.8,4.4,2.2,8.5,6.9,8.5,13.7ZM635.8,100.7v2l-20,50.8h-11.2l16.2-42.4h-21.2v-10.4h36.2ZM635.5,123.1h25.8v9.3h-25.8v-9.3ZM704.8,136.1c.3,22.9-37.4,24.8-37.1.6,0-5.2,1.7-7.8,16.9-36h12.1c0,0-11,19.6-11,19.6,9.4-2.5,19,4.9,19,15.8h0ZM694.3,135.7c0-10.4-15.9-10.4-16,0,0,10.4,15.9,10.2,16,0h0ZM748.2,136.1c.3,22.9-37.4,24.8-37.1.6,0-5.2,1.7-7.8,16.9-36h12.1c0,0-11,19.6-11,19.6,9.3-2.5,19,4.9,19,15.8h0ZM737.7,135.7c0-10.4-15.9-10.4-16,0,0,10.4,15.8,10.2,16,0h0ZM754.5,137.5c0-8.4,6.2-13.3,9.7-14-12.9-4.9-6.2-24.6,8.5-24,15.1-.7,21.1,19.2,8.6,24,2.9.7,9.7,5.3,9.7,14,0,22.4-36.5,22.3-36.5,0ZM780.3,136.8c0-9.7-15.1-9.7-15.2,0,0,9.4,15.3,9.3,15.2,0ZM778,114.2c.2-6.3-10.6-6.4-10.4,0,0,6.2,10.3,6.5,10.4,0ZM797.3,137.5c0-8.4,6.2-13.3,9.7-14-12.9-4.9-6.2-24.6,8.5-24,15.1-.7,21.1,19.2,8.6,24,2.9.7,9.7,5.3,9.7,14,0,22.4-36.5,22.3-36.5,0ZM823.1,136.8c0-9.7-15.1-9.7-15.2,0,0,9.4,15.3,9.3,15.2,0ZM820.8,114.2c.2-6.3-10.6-6.4-10.4,0,0,6.2,10.3,6.5,10.4,0ZM436,120.5c-1-27.6,36.5-27.7,35.4,0,1.1,27.7-36.3,27.6-35.4,0ZM460.8,120.5c.5-14.3-14.6-14.3-14.1,0-.5,14.3,14.6,14.3,14.1,0ZM505.3,127.3c.7,17-30.8,19.6-30.4,0,0-3.5.9-7.2,13.2-27.1h12.1c0,0-8.8,14.7-8.8,14.7,7.1-.9,13.9,4.6,13.9,12.3ZM494.6,126.9c0-6.1-9.2-6.1-9.1,0,0,6,9.3,5.8,9.1,0h0ZM503.5,151.1h-67.7v2.2h67.7v-2.2ZM451,26v-10.7h-4v14.2h22.7v5.2h-28.3V15.3h-4.8v-5.2h4.8V2.6h5.6v7.6h4V1.8h5.4v8.4h4V2.1h5.7v8h4.6v5.2h-4.6v10.7h-15ZM456.4,15.3v5.8h4v-5.8h-4ZM501.3,19.1c2.5,1.9,5.7,3.4,9.3,4.2-1.2,1.1-2.8,3.2-3.6,4.6-2-.7-3.8-1.5-5.5-2.6v11.2h-5.6v-13.2h2.9c-1.5-1.3-2.8-2.7-3.9-4.2h-3.6c-1.1,1.5-2.4,2.8-3.9,4.1h3.1c0,5.5.3,10.3-8.7,13.7-.7-1.3-2.5-3.4-3.7-4.4,6.4-2,6.8-4.7,6.8-7.5-1.9,1.3-3.9,2.3-6,3-.8-1.3-2.4-3.3-3.6-4.4,3.4-1,6.7-2.6,9.1-4.5h-5V2.7h27.1v16.4h-5.3ZM484.8,8.9h5.3v-1.9h-5.3v1.9ZM484.8,14.8h5.3v-1.9h-5.3v1.9ZM500.9,7h-5.4v1.9h5.4v-1.9ZM500.9,14.8v-1.9h-5.4v1.9h5.4ZM516.2,16.6c-.3-1-1.1-3.4-1.7-4.7,3.2-1.8,4.1-5.4,6.3-10.7l4.9,2c-1.2,2.7-2.9,5.7-4.6,8.2h1.9c1-1.7,1.9-3.3,2.6-5l4.4,2.8c-1.5,2.6-3.3,5.2-5.2,7.6l3-1.1c1.2,2.3,2.3,5.3,2.6,7.3l-3.8,1.6c0-.4-.1-1-.3-1.6-7.5,1.3-9,1.7-9.9,2.3-.3-1-1.1-3.4-1.7-4.7,2-.6,3.3-2.7,5.1-4.7-2.4.3-3.2.5-3.7.8h0ZM520,26.9c-.2,3.3-.7,6.9-1.5,9.1-.9-.5-2.9-1.1-4-1.4.9-2.1,1.2-5.4,1.3-8.4l4.1.7ZM523.9,25.9c.4,2.4.9,5.4,1,7.4l-3.8,1c0-2-.4-5.1-.7-7.5l3.6-.9ZM525.1,19c-.2-.6-.4-1.1-.7-1.7-.6.7-1.2,1.4-1.8,2.1l2.4-.4ZM549.2,14.2c-.9,5.7-2.4,10.4-4.7,14.2,1.5,1.4,3.2,2.6,5.2,3.5-1.2,1-2.8,3.1-3.6,4.5-1.9-1-3.5-2.2-4.8-3.6-1.4,1.5-2.9,2.8-4.6,3.9-.7-1.1-2-2.7-3-3.7-.5,1.3-1.1,2.5-1.7,3.6-.8-.9-3.4-2.7-4.6-3.4.4-.6.9-1.3,1.2-2l-2.7,1c-.3-1.6-1-4.1-1.6-6l3.5-1.2c.6,1.4,1.1,3.2,1.5,4.6,2.1-5.4,2.6-13,2.6-21.5h-2.8V2.9c3.3.1,13.8-.3,16.8.3-.4,3.3-1,6.9-1.6,10.1.4,0,1.2,0,1.6-.2,0,0,3.4,1.1,3.4,1.1ZM538.1,28.5c-.9-1.4-1.6-2.8-2.2-4.4-.4,3-1.1,5.7-2,8.2,1.6-1,2.9-2.2,4.2-3.7ZM537,7.9c0,1.8,0,3.6-.1,5.3h2.4c.3-1.7.6-3.6.9-5.3h-3.2ZM538.5,18c.6,2.1,1.4,4.1,2.5,5.9.9-1.8,1.7-3.8,2.2-5.9h-4.7ZM566.5,11.7h-12.8v-4.2h5.8c-.7-1.3-1.7-3-2.5-4.2l4-2.2c1.2,1.6,2.6,3.6,3.3,5l-2.3,1.4h4.6v4.2ZM565.6,34.6h-6.6v1.5h-3.9v-13h10.5v11.5ZM565.3,16.8h-10.2v-4h10.2v4ZM555.2,17.9h10.2v4h-10.2v-4ZM559,27.3v3h2.6v-3h-2.6ZM580.1,16.7v1h7v9.3h1.6v3.7h-1.6c.7,5.3-2.8,6.2-7.6,5.9-.1-1.3-.8-3.1-1.4-4.3,2.2-.1,4.3,1,3.8-1.6h-8.7v6h-5v-6h-1.9v-3.7h1.9v-9.3h6.8v-1h-8.5v-3.7h4.5v-1.1h-3.1v-3.5h3.1v-1h-4v-3.7h4V1.4h4.9v2.4h3V1.4h5v2.4h3.9v3.7h-3.9v1h3.3v3.5h-3.3v1.1h4.7v3.7h-8.7ZM573.3,21.4v1.1h1.9v-1.1h-1.9ZM573.3,27h1.9v-1.3h-1.9v1.3ZM576.1,8.5h3v-1h-3v1ZM576.1,13h3v-1.1h-3v1.1ZM580.1,21.4v1.1h1.9v-1.1h-1.9ZM582,27v-1.3h-1.9v1.3h1.9ZM622.4,30.7c.7,0,.9-.7,1-5.1,1.1.9,3.6,1.9,5.1,2.3-.5,8.3-3.2,8.4-8.5,8.2-5.7.7-5.6-5.3-5.4-10h-4c-1.1,4.3-4.4,8.6-13.8,10.9-.9-1.4-2.5-3.4-3.8-4.7,6.8-1.6,10-3.8,11.3-6.2h-8.3v-5h9.2v-3.8h5.7v3.8h9.2v8.3c-.2,2.1,1,1.3,2.1,1.4ZM599.9,12.6h-5.4V4.5h13c-.1-.8-.4-1.6-.6-2.3l5.7-.9c.3,1,.7,2.1,1,3.2h13.2v7.7h-5.7v-3h-3.8c.3,1.1-.9,5.6,1.1,5.4,2,0,5.6.1,7.4-.3.1,1.4.3,3.3.4,4.5-1.8.5-6.2.3-8.2.3-7,.5-6-5.1-6-9.9h-2.9c-.7,5.1-2.7,8.4-11.6,10.2-.4-1.3-1.7-3.3-2.8-4.4,6.9-1.1,8.2-2.9,8.7-5.9h-3.6v3.3ZM677.3,30.3v5.3h-33.7v-5.3h14v-6.4h-9.6v-5.2h9.6v-5.7h-7.1c-1,1.9-2.1,3.7-3.2,5-1.1-.9-3.5-2.5-4.8-3.3,2.8-3,5.2-8.1,6.5-13.1l5.6,1.3c-.4,1.6-1,3.2-1.6,4.8h4.7V1.4h5.6v6.4h12.1v5.3h-12.1v5.7h10.6v5.2h-10.6v6.4h14.1ZM689.2,20.1c-1.5-1.1-4.8-2.8-7-4l2.9-4c2,.9,5.4,2.5,7.1,3.5l-3,4.5ZM682.6,32.5c2-2.7,4.8-7.2,7-11.5l4,3.6c-2,3.9-4.2,7.9-6.4,11.6l-4.6-3.6ZM690.7,9.9c-1.4-1.1-4.6-2.8-6.7-4.1l3-3.9c2,1,5.2,2.6,6.8,3.6l-3.2,4.3ZM708.1,17.3v3.9h7.5v15.2h-5.1v-1.3h-10v1.5h-4.8v-15.3h7.4v-3.9h-9.5v-5.1h9.5v-3.4c-2.3.3-4.6.6-6.7.8-.2-1.3-.9-3.4-1.4-4.6,6.2-.6,12.8-1.9,16.9-3.6l4.1,4.2c-2.4.9-5,1.7-7.8,2.3v4.3h9v5.1h-9ZM710.4,26.1h-10v4.1h10v-4.1ZM744.5,13.6c3.7,2.9,9.5,7.3,12.1,10.2l-4.6,4.1c-2.1-2.6-6.5-6.5-10.2-9.7v18.1h-5.9v-16.7c-3.1,3.3-6.8,6.1-10.9,8.2-.9-1.4-2.6-3.7-3.7-4.9,6.5-3,11.9-8.3,15.2-13.7h-14V3.8h32.5v5.5h-11.4c-.6,1-1.2,2.1-1.9,3.1v3.5l2.7-2.3ZM795.3,25h-3.8c.1,7.3,1,11.7-8.2,11.1-.1-1.4-.7-3.3-1.3-4.7l-2.2,1.3c-.7-1.7-2.4-4.2-3.9-6l2.9-1.6h-4.4v-4.7h1.6c-.6-1-1.4-2.1-2.1-2.8,3.4-.9,6.6-2.3,9.3-4.2-.8-1.1-2-2.5-3.1-3.6-1.3.9-2.6,1.6-3.9,2.3-.6-.8-1.8-2-2.8-2.8v27.5h-4.9v-12.4h-1.6c0,3.1-.5,8.8-2.9,12.4-.9-.8-2.8-2-3.9-2.6,1.8-2.9,2.1-7.3,2.2-9.9h-1.7v-4.6h8v-3.3h-6.6V3h4.6v8.7h2V1.4h4.9v7c3.8-1.6,7.3-4.4,9.2-7l5.3,1.3c-.4.5-.9,1-1.3,1.6.7,0,4.4,0,5-.2l3.3,1.6c-1.7,4.6-4.4,8-7.8,10.7h4.6v4.1h3.8v4.7ZM781.2,14.6c-2.2.6-4.4,1.1-6.5,1.6l-.9-3.7c1.9-.3,4.3-.8,7-1.3l.4,3.4ZM786.4,16.7c-2.1,1.5-4.4,2.7-7,3.7h7v-3.7ZM786.4,25h-5.7c1.4,1.6,2.9,3.6,3.6,5l-1.5.9c1.6-.2,3.3.6,3.6-.5,0,0,0-5.4,0-5.4ZM783.7,7.8c1,.9,1.9,1.9,2.6,2.7.8-.9,1.4-1.8,2-2.7h-4.6ZM811.6,22v9.6c.3,4.4-2.7,4.8-6.5,4.8-.2-1.2-.7-2.9-1.3-4.1-.3.6-.6,1.2-.9,1.7-.8-.7-2.6-2-3.6-2.6,1.4-2.2,2.4-5.6,3-8.8l4.3.9c-.6,3-1.6,6.1-2.7,8.5,1.3-.2,2.7.5,2.9-.4,0,0,0-9.5,0-9.5h-5.2v-10.5h14.5v10.5h-4.6ZM817.3,10.1h-17v-4.7h6.4c-.3-1-.7-2.1-1-3.1l4.9-1c.6,1.3,1.2,2.8,1.6,4.1h5.2v4.7ZM806.3,17.9h5v-2.4h-5v2.4ZM815.3,22c1.2,2.1,2.3,4.8,2.7,6.6l-3.9,1.9c-.3-1.9-1.4-4.7-2.5-6.8l3.7-1.7ZM830.6,32c1.3-.9.5-2.9.8-5.4.9.9,2.8,1.8,4.1,2.3-.1,3.7-.3,7.3-4.4,7.1-1.6,0-3.9.3-5.1-1-1.5-.9-.9-7.6-1-9.7-1.3,4.3-3.4,8.3-6.5,11.5-.8-1.2-2.3-2.6-3.7-3.4,4.8-4.6,6.5-10.9,7.2-17.8h-4.1v-4.8h4.4c.1-3.1,0-6.2.1-9.3h5v2.7s3-1.7,3-1.7c1.5,1.7,3.3,4.2,4,5.8l-3.7,2.3c-.6-1.5-2-3.7-3.3-5.5,0,1.9,0,3.8-.2,5.7h7.5v4.8h-7.8v1.3c-.1,0,2.7,0,2.7,0v13.9c0,1.1,0,1.4,1,1.3Z"/>
  <path class="st10" d="M391.9,0v154.2M387.4,0v154.2"/>
  <rect class="st7" x="139.7" y="126.6" width="5.2" height="5.2"/>
  <rect class="st9" x="139.7" y="133.1" width="5.2" height="5.2"/>
  <rect class="st5" x="139.7" y="139.5" width="5.2" height="5.2"/>
  <rect class="st11" x="139.7" y="146" width="5.2" height="5.2"/>
  <rect class="st8" x="133.2" y="139.5" width="5.2" height="5.2"/>
  <rect class="st1" x="133.2" y="146" width="5.2" height="5.2"/>
  <rect class="st2" x="126.8" y="146" width="5.2" height="5.2"/>
  <path class="st0" d="M15.3,128.2c-.2-.4-.5-.8-.8-1.3-9.2.4-10.6.4-11.7.8-.1-.5-.6-1.8-.9-2.5,2.1-1,3.3-2.8,5.2-5.8l2.6,1.1c-1,1.5-2.3,3-3.6,4.2l6.4-.2c-.6-.7-1.2-1.4-1.8-2l2-1.4c1.6,1.6,3.8,3.8,4.7,5.3l-2.2,1.6ZM3.1,128.8h12.6v8.1h-2.8v-.9h-7.1v.9h-2.7v-8.1ZM5.8,131.3v2.2h7.1v-2.2h-7.1ZM28.9,123.6c0,.4-.1.7-.2,1h6.6v9.8c0,2.7-2.1,2.4-4.4,2.5-.1-.6-.5-1.6-.8-2.2,1,0,2.4.4,2.6-.3,0,0,0-7.3,0-7.3h-2.8l1.6.3c-.2.6-.4,1.2-.6,1.7h.9v2h-2.7v.8h3.1v2.1h-3.1v2.4h-2.5v-2.4h-3v-2.1h3v-.8h-2.6v-2h1.1c-.1-.5-.4-1.2-.6-1.6l1.5-.3h-3v9.9h-2.6v-12.3h5.9c0-.3.1-.7.2-1h-6.5v-2.4h6.8c0-.5,0-.9,0-1.3l2.9.3c0,.4-.1.7-.2,1.1h6.4v2.4h-6.9ZM28.4,129c.2-.6.4-1.4.5-2h-2.4c.3.6.5,1.3.6,1.7l-.9.2h2.2ZM38.3,128.6h7.2v8.2h-2.6v-.4h-2.1v.5h-2.4v-8.3ZM51.3,128h-10.6v-7.5h10.6v7.5ZM40.8,130.8v.7h2.1v-.7h-2.1ZM42.9,134.2v-.8h-2.1v.8h2.1ZM48.6,122.6h-5.4v.6h5.4v-.6ZM48.6,125.2h-5.4v.7h5.4v-.7ZM53.7,128.6v8.2h-2.6v-.4h-2.3v.5h-2.5v-8.3h7.4ZM48.8,130.8v.7h2.3v-.7h-2.3ZM51.1,134.2v-.8h-2.3v.8h2.3ZM66.1,132c2.1.8,5.1,2,6.6,2.9l-1.3,2.1c-1.5-1-4.6-2.4-6.9-3.3l1.1-1.7h-.6c-.8,2.2-3,3.9-7.9,4.9-.3-.6-1-1.6-1.6-2.2,3.7-.6,5.6-1.6,6.5-2.8h-6v-2.4h1.7v-4.1h5.1v-1.4h2.7v1.4h5.4v4.1h1.5v2.4h-6.3ZM59,123.5h-2.8v-2.2h2.8v-1.4h2.6v1.4h2.2v2.2h-2.2v1.4h-2.6v-1.4ZM62.8,129.6v-1.9h-2.6v1.9h2.6ZM66.8,123.4h-2.2v-2.2h2.2v-1.4h2.7v1.4h2.7v2.2h-2.7v1.3h-2.7v-1.3ZM68.2,129.6v-1.9h-2.8v1.9h2.8ZM17.7,156.2h-3.5c1,.8,2.2,1.8,2.9,2.5l-2.4,1c-.2-.2-.4-.4-.7-.7-8.5.3-9.7.3-10.6.6-.1-.5-.5-1.7-.8-2.4.6-.1,1.1-.5,1.8-1H1.2v-1.9h16.5v1.9ZM3.6,149.1H1.3v-3.9h6.8v-.4H2.7v-1.8h13.5v1.8h-5.5v.4h6.9v3.9h-2.4v-.8c-.8.3-1.8.6-2.7.8,1.2.4,2.6.8,3.4,1.2l-.7,1.7h.5v1.9H3.3v-1.9h.2l-.7-1.9c1-.2,2.4-.6,3.9-1-.8-.4-2.1-.8-3.1-1.1l.8-1.2h-.8v2.3ZM8.1,151.4v-4.6h-2.8c.9.3,2,.6,2.6.9l-.7,1.3h.5c0-.1.3,1.5.3,1.5-1.3.5-2.7,1-4,1.5h10.9c-1-.4-2.9-1.1-4.2-1.6l.6-1.3-.7-1.1c.9-.2,2.2-.7,3.1-1.1h-3.1v4.6h-2.6ZM11.9,157.1c-.3-.2-.5-.4-.8-.6l.6-.3h-3.6c-.4.3-.9.7-1.3,1h5ZM15.1,146.8h-.8l.8,1.2v-1.2ZM25.2,154.4l.3,2.4c-2,.5-4.1,1-5.8,1.3l-.5-2.6c.9-.1,2.1-.4,3.3-.6.3-1.8.6-4.5.6-6.4l2.2.3c-.3,1.9-.6,4-.9,5.7l.9-.2ZM25.4,148h-6.1v-2.4h2.4c-.2-.7-.6-1.6-.9-2.2l2.2-.6c.4.8.9,1.8,1.1,2.5l-1.1.3h2.4v2.4ZM20.1,154.6c0-1.6-.2-3.9-.4-5.8l1.9-.3c.3,1.8.5,4.1.5,5.7l-2,.4ZM32,151.2l-.4.8h4.2c-.4,2.1,1.5,8.5-2.6,7.7,0-.4-.1-.8-.3-1.2v1h-1.9v-5.3h-.6v5.3h-1.9v-5.3h-.6v5.5h-2.3v-7.6h3.3c0-.3.1-.6.2-.8h-3.7v-2.3h10.8v2.3h-4.1ZM35.5,148.2h-9.7v-4.8h2.4v2.6h1.2v-3.4h2.5v3.4h1.2v-2.6h2.5v4.8ZM33.5,154.2h-.6v3.5c1.1.5.4-3.1.6-3.5ZM54.3,145.5h-2.7c.4.3.8.7,1.1,1l-1.2,1.1h2.4v3.3h-2.3v3.5h-8.7v.6h9.6v4.8h-2.6v-.4h-7v.4h-2.7v-8.9h-2.3v-3.3h.9c-.4-.5-1.1-1.2-1.5-1.5,1-.9,2-2.3,2.6-3.7l2.3.7c0,.2-.1.3-.2.5h3.6v1.5c.8-.7,1.4-1.7,1.8-2.6l2.4.6c0,.2-.2.4-.2.5h4.7v1.9ZM41,145.5c-.5.8-1,1.5-1.6,2.1h3.1c-.4-.4-1-1-1.4-1.4l.7-.6h-.8ZM51.2,149.5h-10.7v.6h10.7v-.6ZM49.1,151.9h-6.1v.6h6.1v-.6ZM42.9,156.7v.6h7v-.6h-7ZM46.4,146.2c-.3-.2-.6-.5-.9-.7h-2c.3.3.6.6.8.8l-1.3,1.3h1.7c-.1-.3-.3-.6-.4-.9l2.1-.4ZM50.6,147.6c-.5-.5-1.1-1-1.6-1.4l.8-.7h-1.3c-.4.5-.8,1-1.2,1.4,0,0-.2-.2-.3-.3.2.3.3.6.5.9h3.2ZM71.2,150.8c-.6.5-1.4,1-2.1,1.5.6,1.9,1.9,3.6,3.9,4.4-.6.5-1.3,1.5-1.7,2.1-2.1-1-3.4-2.9-4.2-5.3l-.4.2c.8,3.9-1,6.4-4.6,5.8,0-.7-.2-1.7-.7-2.4-1.4.7-2.9,1.3-4.2,1.7-.3-.6-.8-1.6-1.3-2.2,2.8-.6,6.3-2.1,8.1-3.5,0-.1,0-.3-.1-.4-1.8,1.1-4.4,2.2-6.4,2.8-.3-.6-.8-1.5-1.3-2,2.2-.4,5.1-1.5,6.7-2.5,0-.1-.2-.2-.3-.3-1.5.8-3.2,1.3-4.9,1.8-.3-.5-.9-1.5-1.3-2,1.9-.3,3.8-.9,5.4-1.6h-2.5v-2.2h10v2.2h-3.7c-.3.3-.6.5-1,.8.6.6,1.1,1.2,1.4,1.9,1.1-.8,2.3-1.8,3.1-2.6l2.2,1.7ZM58.9,148.2h-2.6v-4.3h6.4c-.1-.3-.2-.5-.3-.8l2.8-.8c.3.5.5,1,.7,1.6h6.3v4.3h-2.7v-2h-10.6v2ZM63.8,156.8c.2-.2.3-.6.4-1.1-.8.5-1.7,1-2.7,1.5.9,0,1.8.4,2.3-.4ZM113.3,150.4l-23.5-23.5-.6.6,23.5,23.5.6-.6ZM113.3,127.6l-.6-.6-23.5,23.5.6.6,23.5-23.5ZM262.6,150.4l-23.5-23.5-.6.6,23.5,23.5.6-.6ZM262.6,127.6l-.6-.6-23.5,23.5.6.6,23.5-23.5ZM156.2,129.9c-3.3-1.1-2.9,3.3-2.9,5.3h2.5v3h-2.5v12.9h-3.5v-12.9h-2v-3h2c-.6-4.2,1.3-10,6.6-8.2l-.2,2.9h0ZM162.1,130.5c.1,1.8-2.2,3-3.5,1.6-2.7-3,3.3-5.9,3.5-1.6M158.3,135.2h3.5v15.9h-3.5v-15.9ZM169.6,138.3c.6,1.9-1.8,12.1,2.7,10.1v2.8c-8.1,3.2-5.7-8.5-6-12.8h-2v-3h2v-4.2h3.3v4.2h2.8v3h-2.8ZM176.3,135.3l3.8,12.9h0l4.3-12.9h2.2l4.3,12.9h0l3.8-12.9h2.4l-5,15.9h-2.5l-4.2-12.9h0l-4.2,12.9h-2.5l-5-15.9h2.5ZM210.7,142c0-7-10.6-6.6-10.8,0h10.8ZM213.1,142.7c0,.3,0,.8,0,1.1h-13.2c-.1,5.7,8,7.9,10.9,3l1.7,1.4c-5.8,7.9-18.3.6-14.4-8.3,2.8-7.9,15.6-5.9,15,2.8M215.3,126.6h2.3v24.5h-2.3v-24.5ZM219.4,128.4c0-2.5,4-2.5,3.9,0,0,2.5-4,2.5-3.9,0ZM219.7,128.4c0,2.2,3.4,2.2,3.3,0,0-2.2-3.3-2.1-3.3,0h0ZM220.7,127.3c1.1-.3,2.5.6,1,1.3l.6,1h-.3l-.6-1h-.4v1h-.3v-2.3h0ZM221,128.3c1.3.2,1.3-1,0-.7v.7h0ZM293.3,153.6c5.6,0,13.5,1.4,13.3-7.5,0-8.7-11.7-8.2-11.7-13.5.2-4.7,6.6-3.4,5.7,1.2h5.6c1.9-12-18.8-10.1-17.2-.5,0,8.2,11.7,8.5,11.7,13.5-.4,5.4-7.4,3.4-6.2-1.7h-5.8c-.2,3.8.6,7.3,4.6,8.5M320.7,134.4h5.8c.8-12.8-21.1-13.2-18.7,5.1-.8,16.9,7.1,14.5,18.7,13.6v-14h-8.9v4.2h3.1v6.1c-5.7,1.4-7.1.8-7-9.6,0-5.4,0-10.2,3.6-10.2s3.5,2.3,3.5,4.8M337.4,125.5c-7.1,0-9.1,3.4-9.1,7.8,0,8.2,11.7,8.5,11.7,13.5-.4,5.4-7.4,3.4-6.2-1.7h-5.8c-.8,9.4,5.7,8.7,12.7,8.5,4.1-.7,5.6-5.3,5-9.3-1.5-6.8-11.5-6.8-11.5-11.7.1-4.8,6.8-3.2,5.8,1.2h5.6c.4-5.1-2.3-8.5-8.2-8.3"/>
  <path class="st3" d="M271.3,153.6h85.7v.7h-85.7v-.7ZM345.6,159.9h.7v-40h-.7v40Z"/>
</svg>